<?xml version="1.0" encoding="UTF-8"?>
<svg width="24px" height="32px" viewBox="0 0 24 32" version="1.1" xmlns="http://www.w3.org/2000/svg" xmlns:xlink="http://www.w3.org/1999/xlink">
    <!-- Generator: Sketch 40.1 (33804) - http://www.bohemiancoding.com/sketch -->
    <title>Untitled 5</title>
    <desc>Created with Sketch.</desc>
    <defs></defs>
    <g id="Page-1" stroke="none" stroke-width="1" fill="none" fill-rule="evenodd">
        <path d="M11.436,30.068 L11.436,3.249 L2.226,12.489 C2.12761566,12.6018685 1.98571999,12.6673588 1.836,12.669 C1.507,12.669 1.236,12.369 1.236,12.069 C1.236,11.919 1.296,11.799 1.416,11.678 L11.646,1.449 C11.7560367,1.33474744 11.9073828,1.26952449 12.066,1.268 C12.216,1.268 12.337,1.328 12.457,1.449 L22.686,11.678 C22.806,11.799 22.866,11.918 22.866,12.069 C22.866,12.399 22.566,12.669 22.266,12.669 C22.1160727,12.6670095 21.9740041,12.601607 21.875,12.489 L12.636,3.219 L12.636,30.068 C12.636,30.368 12.365,30.638 12.036,30.638 C11.736,30.639 11.436,30.368 11.436,30.068 L11.436,30.068 Z" id="Shape" stroke="#000000" stroke-width="2" fill="#000000"></path>
    </g>
</svg>