<?xml version="1.0" encoding="utf-8"?>
<!-- Generator: Adobe Illustrator 18.0.0, SVG Export Plug-In . SVG Version: 6.00 Build 0)  -->
<!DOCTYPE svg PUBLIC "-//W3C//DTD SVG 1.1//EN" "http://www.w3.org/Graphics/SVG/1.1/DTD/svg11.dtd">
<svg version="1.1" id="Слой_1" xmlns="http://www.w3.org/2000/svg" xmlns:xlink="http://www.w3.org/1999/xlink" x="0px" y="0px"
	 viewBox="302 0 351 450" enable-background="new 302 0 351 450" xml:space="preserve">
<path fill="#FFFD38" d="M578.5,154.4h-197V179h197V154.4L578.5,154.4z"/>
<path fill="#FFFD38" d="M578.5,185.7h-197c0,55.9,80.6,25.4,80.6,64.2c0,24-14.4,79.6-14.4,114.7c0,35.1,23.2,67.6,31.5,67.6h1.6
	c8.3,0,31.5-32.5,31.5-67.6c0-35.1-14.5-90.7-14.5-114.7C497.9,211.1,578.5,241.6,578.5,185.7z M480,405.7c-4.3,0-7.8-3.5-7.8-7.8
	c0-4.3,3.5-7.9,7.8-7.9c4.3,0,7.8,3.5,7.8,7.9C487.8,402.2,484.3,405.7,480,405.7z"/>
<path fill="#FFFD38" d="M406.8,15.7h-25.3v53.8c0.1,0,0.1,0,0.2,0c11.4,0,2.4,23.4,20.1,23.4c15.9,0,6.4-32.1,28.9-32.1
	c21.4,0,6.4,33.1,33.8,33.1c27.4,0,10.4-38.1,38.9-38.1c32,0,10.1,56,28.5,56c14.2,0,0.8-47.6,21.2-47.6c15.2,0,3.8,30.2,25.5,30.8
	V15.7H414.1"/>
<g>
	<path fill="#FFFD38" d="M578.3,102.2c-2,0-3.7-0.3-5.4-0.7v40.5H387V93.4c-3.2-4.1-4.3-9.3-5-12.5c-0.1-0.6-0.3-1.4-0.5-2.1v68.9
		h197v-45.4L578.3,102.2z"/>
</g>
</svg>
