<?xml version="1.0" encoding="utf-8"?>
<!-- Generator: Adobe Illustrator 18.0.0, SVG Export Plug-In . SVG Version: 6.00 Build 0)  -->
<!DOCTYPE svg PUBLIC "-//W3C//DTD SVG 1.1//EN" "http://www.w3.org/Graphics/SVG/1.1/DTD/svg11.dtd">
<svg version="1.1" id="Слой_1" xmlns="http://www.w3.org/2000/svg" xmlns:xlink="http://www.w3.org/1999/xlink" x="0px" y="0px"
	 viewBox="268.4 40 425.5 480" enable-background="new 268.4 40 425.5 480" xml:space="preserve">
<g>
	<g>
		<linearGradient id="SVGID_1_" gradientUnits="userSpaceOnUse" x1="359.2433" y1="182.015" x2="573.571" y2="182.015">
			<stop  offset="0" style="stop-color:#EAFF00"/>
			<stop  offset="1" style="stop-color:#7AFA8B"/>
		</linearGradient>
		<rect x="359.2" y="170.3" fill="url(#SVGID_1_)" width="214.3" height="23.4"/>
		<linearGradient id="SVGID_2_" gradientUnits="userSpaceOnUse" x1="359.2433" y1="133.2748" x2="573.571" y2="133.2748">
			<stop  offset="0" style="stop-color:#EAFF00"/>
			<stop  offset="1" style="stop-color:#7AFA8B"/>
		</linearGradient>
		<rect x="359.2" y="121.6" fill="url(#SVGID_2_)" width="214.3" height="23.4"/>
		<linearGradient id="SVGID_3_" gradientUnits="userSpaceOnUse" x1="359.2433" y1="230.7685" x2="573.571" y2="230.7685">
			<stop  offset="0" style="stop-color:#EAFF00"/>
			<stop  offset="1" style="stop-color:#7AFA8B"/>
		</linearGradient>
		<rect x="359.2" y="219.1" fill="url(#SVGID_3_)" width="214.3" height="23.4"/>
		<linearGradient id="SVGID_4_" gradientUnits="userSpaceOnUse" x1="359.2433" y1="279.5132" x2="461.2306" y2="279.5132">
			<stop  offset="0" style="stop-color:#EAFF00"/>
			<stop  offset="1" style="stop-color:#7AFA8B"/>
		</linearGradient>
		<rect x="359.2" y="267.8" fill="url(#SVGID_4_)" width="102" height="23.4"/>
		<linearGradient id="SVGID_5_" gradientUnits="userSpaceOnUse" x1="312.1765" y1="255.2607" x2="620.2258" y2="255.2607">
			<stop  offset="0" style="stop-color:#EAFF00"/>
			<stop  offset="1" style="stop-color:#7AFA8B"/>
		</linearGradient>
		<path fill="url(#SVGID_5_)" d="M466.4,417.1h-114c-10.4,0-18.8-8.4-18.8-18.8V112.3c0-10.4,8.4-18.8,18.8-18.8H580
			c10.4,0,18.8,8.4,18.8,18.8v172.9l21.4-12.3V102.2c0-15.6-12.7-28.3-28.3-28.3H340.4c-15.6,0-28.3,12.6-28.3,28.3v306.2
			c0,15.6,12.7,28.3,28.3,28.3h116.1L466.4,417.1z"/>
	</g>
	<linearGradient id="SVGID_6_" gradientUnits="userSpaceOnUse" x1="454.7972" y1="382.412" x2="675.5358" y2="382.412">
		<stop  offset="0" style="stop-color:#EAFF00"/>
		<stop  offset="1" style="stop-color:#7AFA8B"/>
	</linearGradient>
	<path fill="url(#SVGID_6_)" d="M636.1,402l39.4-18.8l-39.2-19.3l24.8-36l-43.6,2.9l3.5-43.5l-36.3,24.2L566,272l-19.3,39.2
		l-36-24.7l2.8,43.6l-43.5-3.5l24.3,36.3l-39.4,18.8l39.2,19.3l-24.8,36l43.6-2.8l-3.5,43.5l36.3-24.3l18.8,39.5l19.3-39.2l36,24.8
		l-2.8-43.6l43.5,3.5L636.1,402z M626.8,364l-62,73.4c-3.1,3.7-7.8,5.9-12.6,5.9c0,0-0.1,0-0.1,0c-4.8,0-9.4-2.1-12.6-5.7
		l-27.7-31.8c-6.1-7-5.3-17.5,1.6-23.6c7-6.1,17.5-5.3,23.6,1.6l14.9,17.1l49.5-58.5c5.9-7.1,16.5-8,23.5-2
		C631.9,346.4,632.8,356.9,626.8,364z"/>
</g>
</svg>
