<?xml version="1.0" encoding="utf-8"?>
<!-- Generator: Adobe Illustrator 18.0.0, SVG Export Plug-In . SVG Version: 6.00 Build 0)  -->
<!DOCTYPE svg PUBLIC "-//W3C//DTD SVG 1.1//EN" "http://www.w3.org/Graphics/SVG/1.1/DTD/svg11.dtd">
<svg version="1.1" id="Слой_1" xmlns="http://www.w3.org/2000/svg" xmlns:xlink="http://www.w3.org/1999/xlink" x="0px" y="0px"
	 viewBox="192.4 -3.6 567.8 480" enable-background="new 192.4 -3.6 567.8 480" xml:space="preserve">
<g>
	<g>
		<g>
			<path fill="#FFFD38" d="M518.8,54.5c-2.7-0.3-5.4-0.6-8.1-0.9c-6-0.6-11.8-1.2-17.1-2.2c-20-3.7-38.6-11.7-56.7-24.4
				c-10.2-7.3-23.7-7.7-34.3-1l-2.2,1.5c-4.7,3-9.6,6-14.2,8.5c-19.3,10.4-40.9,16.3-66.3,18.1c-21,1.7-28.3,17.4-28.3,30
				c-0.1,3.7-0.1,7.3,0,10.8v5.4c0.3,17.9,1.8,34.2,4.8,49.6c5.4,27.1,14.2,50,27.3,70.2c10.9,17.2,24.6,32.3,41,45.2
				c4.3-5.4,9.6-9.8,15.9-13.4c-16.1-11.9-29.4-26.2-39.9-42.7c-11.6-18-19.5-38.7-24.4-63.2c-2.7-14.2-4.2-29.3-4.4-45.8v-5.4
				c-0.1-3.4-0.1-6.9,0-10.4c0-9.2,6.8-9.7,9.6-10c28.2-2,52.5-8.7,74.3-20.5c5.4-2.8,10.8-6.3,15.5-9.3l2.2-1.4
				c1.9-1.2,3.8-1.8,5.6-1.8c2,0,4,0.7,6,2.2C445.9,58.1,467,67.2,490,71.5c6.1,1.1,12.3,1.8,18.8,2.4c2.6,0.2,5.1,0.5,7.9,0.8
				c7.9,0.7,8.5,7.1,8.5,9c-0.5,39.4-7.4,72.8-21,102.1c-5.6,12-12.3,23.2-20.3,33.6c2.9-0.4,5.9-0.7,8.9-1c5.8-0.5,11.6-1,17.5-1.3
				c4.5-7.3,8.7-14.8,12.3-22.7c14.8-31.9,22.2-68,22.9-110.5C545.6,70.9,537.1,56.1,518.8,54.5z"/>
			<g>
				<path fill="#FFFD38" d="M418.6,216.2c-37.4,0-67.9-30.5-67.9-67.9s30.5-67.9,67.9-67.9c14.2,0,27.8,4.3,39.3,12.5
					c2.4,1.7,3,5.1,1.3,7.6c-1.7,2.5-5.1,3-7.6,1.3c-9.7-6.9-21.1-10.5-33-10.5c-31.5,0-57,25.6-57,57s25.6,57,57,57s57-25.6,57-57
					c0-6.7-1.1-13.2-3.4-19.4c-1-2.8,0.4-5.9,3.3-7c2.8-1,5.9,0.4,7,3.3c2.7,7.4,4,15.2,4,23.1C486.5,185.8,456,216.2,418.6,216.2z"
					/>
				<g>
					<path fill="#FFFD38" d="M479,101.9c-1.3,2-2.7,4.2-4,6.2c-3.4,5-6.8,10.1-10.1,15.2c-4.1,6.1-8.1,12.2-12.2,18.3
						c-3.6,5.5-7.3,10.9-10.9,16.4c-2,3-4,6-6,9c-2.5,3.6-8,6.2-12.2,4.1c-1.7-0.8-3.7-2.4-4.8-3.9c-0.1-0.2-0.3-0.4-0.5-0.7
						c-0.4-0.7-0.9-1.2-1.3-1.9c-0.7-0.9-1.3-1.9-2-2.8c-0.8-1.2-1.6-2.3-2.5-3.4c-0.9-1.3-1.8-2.6-2.7-3.9c-0.9-1.4-1.9-2.7-2.8-4
						c-0.9-1.2-1.8-2.5-2.7-3.9c-0.8-1.2-1.6-2.3-2.5-3.5c-0.6-0.9-1.2-1.8-1.9-2.7c-0.5-0.7-1-1.5-1.5-2.2
						c-0.1-0.1-0.1-0.2-0.2-0.4c-0.4-0.7-0.7-1.5-0.8-2.4c-0.1-1.3,0.4-2.7,1.2-3.6c0.8-0.8,1.9-1.4,3-1.7c0,0,1.5-0.5,3.9,1
						l20.6,17.3c1.5-1.6,2.8-3.3,4.3-4.9c3.5-4,7.1-8.1,10.6-12.1c4.4-4.9,8.7-10,13-14.9c3.9-4.4,7.9-8.9,11.7-13.4
						c2.3-2.7,4.5-5.4,7.1-7.9c2-1.9,4.5-0.9,6.3,0.8C479,95.9,481.5,98.5,479,101.9z"/>
				</g>
			</g>
		</g>
	</g>
	<path fill="#FFFD38" d="M629.6,383.2c-3.8-16.8-19.8-28.4-36.4-27.2c-18.1,1.4-31.6,14.9-33.3,33.1c-1.6,17.3,9.8,31.9,29.8,37.5
		h12.4c3.8-1.5,8.4-2.9,12.1-5.4c3.9-2.6,7.7-6.1,10.3-10c2.6-4,4.6-8.9,5.5-13.6C630.8,393,630.7,387.9,629.6,383.2z M595.3,407.3
		c-8.7,0.1-15.7-6.9-15.8-15.4c-0.1-9.2,6.7-16.1,15.7-16.2c8.8,0,15.8,6.9,15.8,15.8C611.2,400.3,604.1,407.3,595.3,407.3z"/>
	<path fill="#FFFD38" d="M398,383.2c-3.8-16.8-19.7-28.4-36.4-27.2c-18.1,1.4-31.6,14.9-33.2,33.1c-1.5,17.3,9.8,31.9,29.7,37.5
		h12.5c3.8-1.5,8.3-2.9,12-5.4c4-2.6,7.7-6.1,10.3-10c2.7-4,4.6-8.9,5.5-13.6C399.2,393,399.2,387.9,398,383.2z M363.8,407.3
		c-8.6,0.1-15.7-6.9-15.8-15.4c0-9.2,6.7-16.1,15.8-16.2c8.8,0,15.8,6.9,15.8,15.8C379.6,400.3,372.6,407.3,363.8,407.3z"/>
	<path fill="#FFFD38" d="M684.8,328.6c-1.8-2.2-3.4-5.2-3.6-8c-0.8-19.8-12.8-36-23.9-50.8c-10-13.4-20.7-28.3-37.7-30.7
		c-41.7-5.7-83.5-8-125.2-4c-46.7,4.5-89.7,20.8-127.9,50.8c-2.2,1.7-5.1,2.8-7.9,3.3c-21.4,4.2-42.1,10.9-60.9,23
		c-4.2,2.8-8.1,5.7-11.5,8.8v0.1c-8.2,7.3-13.8,15.8-17.1,25.4l11.7,0.2l-0.1,4.7c-0.1,4.8-4.5,8.6-9.8,8.5l-4.8-0.1
		c-0.8,6.7-0.6,14,0.5,21.8c2.1,15.5,11.6,20.5,23.3,21.2c1.3,0.1,2.6,0.1,4,0.1c0.2,0,0.5-0.1,0.7-0.1h19.7
		c-6.9-37.3,23.9-63.5,52-62.7c27.6,0.8,56.2,26.9,49.3,62.7h129.3c-3.4-18.2,1-34.2,14.1-47.5c10.7-10.8,23.9-15.6,39-15
		c25.4,0.8,54.3,25.1,47.9,62.5h32c0,0,1.1-0.7,1.1-0.7C698.6,389.2,698.1,345.1,684.8,328.6z M527.9,335h-37.3
		c-4.7,0-8.6-3.6-8.6-8.1s3.9-8.1,8.6-8.1h37.3c4.7,0,8.6,3.6,8.6,8.1S532.6,335,527.9,335z M532.7,296.8c0,0-1.5,7.9-7.6,8.3
		l-136,5.7c0,0-6.6-0.7,1.8-8.7c0,0,14.9-21,59.1-38.2c0,0,41.5-14.2,76-14.5c0,0,11.4-2.4,10.7,7.7L532.7,296.8z M636.4,303.5
		l-82.1,1.1c0,0-6.9-0.2-6.4-6.1l3.2-41.9c0,0,1.9-7.3,9.4-4.9c0,0,30.7,6.4,45.6,12.3c0,0,25.9,10.6,36.6,26.4c0,0,3.2,4.6,3.9,5.9
		C647.2,297.7,649.9,303.5,636.4,303.5z"/>
</g>
</svg>
