<?xml version="1.0" encoding="UTF-8"?>
<svg width="1359px" height="1780px" viewBox="0 0 1359 1780" version="1.1" xmlns="http://www.w3.org/2000/svg" xmlns:xlink="http://www.w3.org/1999/xlink">
    <!-- Generator: Sketch 40.1 (33804) - http://www.bohemiancoding.com/sketch -->
    <title>Untitled</title>
    <desc>Created with Sketch.</desc>
    <defs>
        <linearGradient x1="-0.00413425099%" y1="50.0511593%" x2="100.018556%" y2="50.0511593%" id="linearGradient-1">
            <stop stop-color="#38A4F7" offset="0%"></stop>
            <stop stop-color="#7AFA8B" offset="100%"></stop>
        </linearGradient>
        <linearGradient x1="-0.0338733432%" y1="50.0220913%" x2="99.9764359%" y2="50.0220913%" id="linearGradient-2">
            <stop stop-color="#38A4F7" offset="0%"></stop>
            <stop stop-color="#7AFA8B" offset="100%"></stop>
        </linearGradient>
        <linearGradient x1="-0.0319370412%" y1="49.8414527%" x2="100.019519%" y2="49.8414527%" id="linearGradient-3">
            <stop stop-color="#38A4F7" offset="0%"></stop>
            <stop stop-color="#7AFA8B" offset="100%"></stop>
        </linearGradient>
        <linearGradient x1="-0.0212875061%" y1="50.1011348%" x2="99.9643029%" y2="50.1011348%" id="linearGradient-4">
            <stop stop-color="#38A4F7" offset="0%"></stop>
            <stop stop-color="#7AFA8B" offset="100%"></stop>
        </linearGradient>
        <linearGradient x1="0.0158850765%" y1="50.0023887%" x2="99.9999704%" y2="50.0023887%" id="linearGradient-5">
            <stop stop-color="#38A4F7" offset="0%"></stop>
            <stop stop-color="#7AFA8B" offset="100%"></stop>
        </linearGradient>
        <linearGradient x1="-0.00771573604%" y1="49.903252%" x2="100.005431%" y2="49.903252%" id="linearGradient-6">
            <stop stop-color="#3BA7F4" offset="0%"></stop>
            <stop stop-color="#7AFA8B" offset="100%"></stop>
        </linearGradient>
        <linearGradient x1="-0.00771573604%" y1="50.0262475%" x2="100.005431%" y2="50.0262475%" id="linearGradient-7">
            <stop stop-color="#3DAAF0" offset="0%"></stop>
            <stop stop-color="#7AFA8B" offset="100%"></stop>
        </linearGradient>
        <linearGradient x1="-0.00771182141%" y1="50.0237253%" x2="99.9569762%" y2="50.0237253%" id="linearGradient-8">
            <stop stop-color="#39A5F6" offset="0%"></stop>
            <stop stop-color="#7AFA8B" offset="100%"></stop>
        </linearGradient>
        <linearGradient x1="-0.00543147208%" y1="49.9088534%" x2="100.007716%" y2="49.9088534%" id="linearGradient-9">
            <stop stop-color="#38A4F7" offset="0%"></stop>
            <stop stop-color="#7AFA8B" offset="100%"></stop>
        </linearGradient>
    </defs>
    <g id="Page-1" stroke="none" stroke-width="1" fill="none" fill-rule="evenodd">
        <g id="insurance" transform="translate(327.000000, 1076.000000)">
            <g id="Group">
                <g transform="translate(4.474419, 0.000000)" id="Shape">
                    <path d="M39.2027907,5.77586207 C38.7381395,5.72413793 38.2734884,5.67241379 37.8088372,5.62068966 C36.7762791,5.51724138 35.7781395,5.4137931 34.8660465,5.24137931 C31.424186,4.60344828 28.2232558,3.22413793 25.1083721,1.03448276 C23.3530233,-0.224137931 21.0297674,-0.293103448 19.2055814,0.862068966 L18.8269767,1.12068966 C18.0181395,1.63793103 17.1748837,2.15517241 16.3832558,2.5862069 C13.0618605,4.37931034 9.34465116,5.39655172 4.97348837,5.70689655 C1.35953488,6 0.103255814,8.70689655 0.103255814,10.8793103 C0.0860465116,11.5172414 0.0860465116,12.137931 0.103255814,12.7413793 L0.103255814,13.6724138 C0.154883721,16.7586207 0.413023256,19.5689655 0.929302326,22.2241379 C1.85860465,26.8965517 3.37302326,30.8448276 5.62744186,34.3275862 C7.50325581,37.2931034 9.86093023,39.8965517 12.6832558,42.1206897 C13.4232558,41.1896552 14.3353488,40.4310345 15.4195349,39.8103448 C12.6488372,37.7586207 10.36,35.2931034 8.55302326,32.4482759 C6.55674419,29.3448276 5.1972093,25.7758621 4.35395349,21.5517241 C3.88930233,19.1034483 3.63116279,16.5 3.59674419,13.6551724 L3.59674419,12.7241379 C3.57953488,12.137931 3.57953488,11.5344828 3.59674419,10.9310345 C3.59674419,9.34482759 4.76697674,9.25862069 5.24883721,9.20689655 C10.1018605,8.86206897 14.2837209,7.70689655 18.0353488,5.67241379 C18.9646512,5.18965517 19.8939535,4.5862069 20.7027907,4.06896552 L21.0813953,3.82758621 C21.4083721,3.62068966 21.7353488,3.51724138 22.0451163,3.51724138 C22.3893023,3.51724138 22.7334884,3.63793103 23.0776744,3.89655172 C26.6572093,6.39655172 30.2883721,7.96551724 34.2465116,8.70689655 C35.2962791,8.89655172 36.3632558,9.01724138 37.4818605,9.12068966 C37.9293023,9.15517241 38.3595349,9.20689655 38.8413953,9.25862069 C40.2009302,9.37931034 40.304186,10.4827586 40.304186,10.8103448 C40.2181395,17.6034483 39.0306977,23.362069 36.6902326,28.4137931 C35.7265116,30.4827586 34.5734884,32.4137931 33.1967442,34.2068966 C33.695814,34.137931 34.212093,34.0862069 34.7283721,34.0344828 C35.7265116,33.9482759 36.7246512,33.862069 37.74,33.8103448 C38.5144186,32.5517241 39.2372093,31.2586207 39.8567442,29.8965517 C42.4037209,24.3965517 43.6772093,18.1724138 43.7976744,10.8448276 C43.8148837,8.60344828 42.352093,6.05172414 39.2027907,5.77586207 L39.2027907,5.77586207 Z" fill="url(#linearGradient-1)"></path>
                    <g transform="translate(10.153488, 10.172414)">
                        <path d="M11.8055814,23.4827586 C5.36930233,23.4827586 0.120465116,18.2241379 0.120465116,11.7758621 C0.120465116,5.32758621 5.36930233,0.0689655172 11.8055814,0.0689655172 C14.2493023,0.0689655172 16.5897674,0.810344828 18.5688372,2.22413793 C18.9818605,2.51724138 19.0851163,3.10344828 18.7925581,3.53448276 C18.5,3.96551724 17.9148837,4.05172414 17.4846512,3.75862069 C15.8153488,2.56896552 13.8534884,1.94827586 11.8055814,1.94827586 C6.38465116,1.94827586 1.99627907,6.36206897 1.99627907,11.7758621 C1.99627907,17.1896552 6.40186047,21.6034483 11.8055814,21.6034483 C17.2093023,21.6034483 21.6148837,17.1896552 21.6148837,11.7758621 C21.6148837,10.6206897 21.4255814,9.5 21.0297674,8.43103448 C20.8576744,7.94827586 21.0986047,7.4137931 21.5976744,7.22413793 C22.0795349,7.05172414 22.6130233,7.29310345 22.8023256,7.79310345 C23.2669767,9.06896552 23.4906977,10.4137931 23.4906977,11.7758621 C23.4906977,18.2413793 18.2418605,23.4827586 11.8055814,23.4827586 L11.8055814,23.4827586 Z" fill="url(#linearGradient-2)"></path>
                        <path d="M22.2,3.77586207 C21.9762791,4.12068966 21.7353488,4.5 21.5116279,4.84482759 C20.9265116,5.70689655 20.3413953,6.5862069 19.7734884,7.46551724 C19.067907,8.51724138 18.3795349,9.56896552 17.6739535,10.6206897 C17.0544186,11.5689655 16.4176744,12.5 15.7981395,13.4482759 C15.4539535,13.9655172 15.1097674,14.4827586 14.7655814,15 C14.3353488,15.6206897 13.3888372,16.0689655 12.6660465,15.7068966 C12.3734884,15.5689655 12.0293023,15.2931034 11.84,15.0344828 C11.8227907,15 11.7883721,14.9655172 11.7539535,14.9137931 C11.6851163,14.7931034 11.5990698,14.7068966 11.5302326,14.5862069 C11.4097674,14.4310345 11.3065116,14.2586207 11.1860465,14.1034483 C11.0483721,13.8965517 10.9106977,13.7068966 10.755814,13.5172414 C10.6009302,13.2931034 10.4460465,13.0689655 10.2911628,12.8448276 C10.1362791,12.6034483 9.96418605,12.3793103 9.80930233,12.1551724 C9.6544186,11.9482759 9.49953488,11.7241379 9.34465116,11.4827586 C9.20697674,11.2758621 9.06930233,11.0862069 8.9144186,10.8793103 C8.81116279,10.7241379 8.70790698,10.5689655 8.58744186,10.4137931 C8.50139535,10.2931034 8.41534884,10.1551724 8.32930233,10.0344828 C8.31209302,10.0172414 8.31209302,10 8.29488372,9.96551724 C8.22604651,9.84482759 8.1744186,9.70689655 8.1572093,9.55172414 C8.14,9.32758621 8.22604651,9.0862069 8.36372093,8.93103448 C8.50139535,8.79310345 8.69069767,8.68965517 8.88,8.63793103 C8.88,8.63793103 9.13813953,8.55172414 9.55116279,8.81034483 L13.0962791,11.7931034 C13.3544186,11.5172414 13.5781395,11.2241379 13.8362791,10.9482759 C14.4386047,10.2586207 15.0581395,9.55172414 15.6604651,8.86206897 C16.4176744,8.01724138 17.1576744,7.13793103 17.8976744,6.29310345 C18.5688372,5.53448276 19.2572093,4.75862069 19.9111628,3.98275862 C20.3069767,3.51724138 20.6855814,3.05172414 21.1330233,2.62068966 C21.4772093,2.29310345 21.9074419,2.46551724 22.2172093,2.75862069 C22.2,2.74137931 22.6302326,3.18965517 22.2,3.77586207 L22.2,3.77586207 Z" fill="url(#linearGradient-3)"></path>
                    </g>
                </g>
                <path d="M62.7451163,62.4482759 C62.0911628,59.5517241 59.3376744,57.5517241 56.4809302,57.7586207 C53.3660465,58 51.0427907,60.3275862 50.7502326,63.4655172 C50.4748837,66.4482759 52.4367442,68.9655172 55.8786047,69.9310345 L58.0125581,69.9310345 C58.6665116,69.6724138 59.4581395,69.4310345 60.0948837,69 C60.7660465,68.5517241 61.42,67.9482759 61.8674419,67.2758621 C62.3148837,66.5862069 62.6590698,65.7413793 62.8139535,64.9310345 C62.9516279,64.137931 62.9344186,63.2586207 62.7451163,62.4482759 L62.7451163,62.4482759 Z M56.8423256,66.6034483 C55.3451163,66.6206897 54.1404651,65.4137931 54.1232558,63.9482759 C54.1060465,62.362069 55.2762791,61.1724138 56.8251163,61.1551724 C58.3395349,61.1551724 59.544186,62.3448276 59.544186,63.8793103 C59.5786047,65.3965517 58.3567442,66.6034483 56.8423256,66.6034483 L56.8423256,66.6034483 Z" id="Shape" fill="url(#linearGradient-4)"></path>
                <path d="M22.8883721,62.4482759 C22.2344186,59.5517241 19.4981395,57.5517241 16.624186,57.7586207 C13.5093023,58 11.1860465,60.3275862 10.9106977,63.4655172 C10.6525581,66.4482759 12.5972093,68.9655172 16.0218605,69.9310345 L18.1730233,69.9310345 C18.8269767,69.6724138 19.6013953,69.4310345 20.2381395,69 C20.9265116,68.5517241 21.5632558,67.9482759 22.0106977,67.2758621 C22.4753488,66.5862069 22.8023256,65.7413793 22.9572093,64.9310345 C23.0948837,64.137931 23.0948837,63.2586207 22.8883721,62.4482759 L22.8883721,62.4482759 Z M17.0027907,66.6034483 C15.5227907,66.6206897 14.3009302,65.4137931 14.2837209,63.9482759 C14.2837209,62.362069 15.4367442,61.1724138 17.0027907,61.1551724 C18.5172093,61.1551724 19.7218605,62.3448276 19.7218605,63.8793103 C19.7218605,65.3965517 18.5172093,66.6034483 17.0027907,66.6034483 L17.0027907,66.6034483 Z" id="Shape" fill="url(#linearGradient-4)"></path>
                <path d="M72.2446512,53.0344828 C71.9348837,52.6551724 71.6595349,52.137931 71.6251163,51.6551724 C71.4874419,48.2413793 69.4223256,45.4482759 67.512093,42.8965517 C65.7911628,40.5862069 63.9497674,38.0172414 61.024186,37.6034483 C53.847907,36.6206897 46.6544186,36.2241379 39.4781395,36.9137931 C31.4413953,37.6896552 24.0413953,40.5 17.4674419,45.6724138 C17.0888372,45.9655172 16.5897674,46.1551724 16.107907,46.2413793 C12.4251163,46.9655172 8.8627907,48.1206897 5.62744186,50.2068966 C4.90465116,50.6896552 4.23348837,51.1896552 3.64837209,51.7241379 L3.64837209,51.7413793 C2.2372093,53 1.27348837,54.4655172 0.705581395,56.1206897 L2.71906977,56.1551724 L2.70186047,56.9655172 C2.68465116,57.7931034 1.92744186,58.4482759 1.01534884,58.4310345 L0.189302326,58.4137931 C0.051627907,59.5689655 0.0860465116,60.8275862 0.275348837,62.1724138 C0.636744186,64.8448276 2.27162791,65.7068966 4.28511628,65.8275862 C4.50883721,65.8448276 4.73255814,65.8448276 4.97348837,65.8448276 C5.00790698,65.8448276 5.05953488,65.8275862 5.09395349,65.8275862 L8.48418605,65.8275862 C7.29674419,59.3965517 12.5972093,54.8793103 17.4330233,55.0172414 C22.1827907,55.1551724 27.1046512,59.6551724 25.9172093,65.8275862 L48.1688372,65.8275862 C47.5837209,62.6896552 48.3409302,59.9310345 50.5953488,57.637931 C52.4367442,55.7758621 54.7083721,54.9482759 57.3069767,55.0517241 C61.6781395,55.1896552 66.6516279,59.3793103 65.5502326,65.8275862 L71.0572093,65.8275862 L71.2465116,65.7068966 C74.6195349,63.4827586 74.5334884,55.8793103 72.2446512,53.0344828 L72.2446512,53.0344828 Z M45.2432558,54.137931 L38.824186,54.137931 C38.0153488,54.137931 37.344186,53.5172414 37.344186,52.7413793 C37.344186,51.9655172 38.0153488,51.3448276 38.824186,51.3448276 L45.2432558,51.3448276 C46.052093,51.3448276 46.7232558,51.9655172 46.7232558,52.7413793 C46.7232558,53.5172414 46.052093,54.137931 45.2432558,54.137931 L45.2432558,54.137931 Z M46.0693023,47.5517241 C46.0693023,47.5517241 45.8111628,48.9137931 44.7613953,48.9827586 L21.3567442,49.9655172 C21.3567442,49.9655172 20.2209302,49.8448276 21.6665116,48.4655172 C21.6665116,48.4655172 24.2306977,44.8448276 31.8372093,41.8793103 C31.8372093,41.8793103 38.9790698,39.4310345 44.9162791,39.3793103 C44.9162791,39.3793103 46.8781395,38.9655172 46.7576744,40.7068966 L46.0693023,47.5517241 L46.0693023,47.5517241 Z M63.9153488,48.7068966 L49.7865116,48.8965517 C49.7865116,48.8965517 48.5990698,48.862069 48.6851163,47.8448276 L49.235814,40.6206897 C49.235814,40.6206897 49.5627907,39.362069 50.8534884,39.7758621 C50.8534884,39.7758621 56.1367442,40.8793103 58.7009302,41.8965517 C58.7009302,41.8965517 63.1581395,43.7241379 64.9995349,46.4482759 C64.9995349,46.4482759 65.5502326,47.2413793 65.6706977,47.4655172 C65.7739535,47.7068966 66.2386047,48.7068966 63.9153488,48.7068966 L63.9153488,48.7068966 Z" id="Shape" fill="url(#linearGradient-5)"></path>
            </g>
        </g>
        <circle id="Oval-2" stroke="#38A4F7" stroke-width="3" cx="1045.5" cy="749.5" r="65.5"></circle>
        <circle id="Oval-2" stroke="#38A4F7" stroke-width="3" cx="362.5" cy="1111.5" r="65.5"></circle>
        <circle id="Oval" stroke="#38A4F7" fill="#38A4F7" cx="1013" cy="1393" r="7"></circle>
        <circle id="Oval" stroke="#38A4F7" fill="#38A4F7" cx="1013" cy="1505" r="7"></circle>
        <circle id="Oval" stroke="#38A4F7" fill="#38A4F7" cx="1013" cy="1598" r="7"></circle>
        <circle id="Oval" stroke="#38A4F7" fill="#38A4F7" cx="567" cy="850" r="7"></circle>
        <circle id="Oval" stroke="#38A4F7" fill="#38A4F7" cx="566" cy="1012" r="7"></circle>
        <circle id="Oval" stroke="#38A4F7" fill="#38A4F7" cx="566" cy="1088" r="7"></circle>
        <circle id="Oval" stroke="#38A4F7" fill="#38A4F7" cx="566" cy="1175" r="7"></circle>
        <circle id="Oval" stroke="#38A4F7" fill="#38A4F7" cx="567" cy="920" r="7"></circle>
        <path d="M678,107 L678,223" id="Shape" stroke="#38A4F7" stroke-width="4"></path>
        <circle id="Oval" stroke="#38A4F7" fill="#38A4F7" cx="805" cy="107" r="7"></circle>
        <circle id="Oval" stroke="#38A4F7" fill="#38A4F7" cx="551" cy="107" r="7"></circle>
        <path d="M556.973764,107.002771 L800.474875,107.002771" id="Shape" stroke="#38A4F7" stroke-width="4"></path>
        <polyline id="Shape" stroke="#38A4F7" stroke-width="4" points="677.336 420.308115 677.336 747.984 566.849065 747.984 566.849065 1237.832 1013.15219 1237.832 1013.15219 1777.75227"></polyline>
        <path d="M677.5,748 L978,748" id="Line" stroke="#38A4F7" stroke-width="4" stroke-linecap="square"></path>
        <g id="brush" transform="translate(1026.000000, 711.000000)">
            <polygon id="Shape" fill="url(#linearGradient-6)" points="39 27 0 27 0 32 39 32 39 27"></polygon>
            <path d="M39,34 L0,34 C0,45.1119675 15.9563452,39.0490872 15.9563452,46.7618661 C15.9563452,51.5326572 13.1055838,62.5849899 13.1055838,69.5622718 C13.1055838,76.5395538 17.6984772,83 19.3416244,83 L19.6583756,83 C21.3015228,83 25.8944162,76.5395538 25.8944162,69.5622718 C25.8944162,62.5849899 23.0238579,51.5326572 23.0238579,46.7618661 C23.0436548,39.0490872 39,45.1119675 39,34 L39,34 Z M19.5,77.7322515 C18.648731,77.7322515 17.9558376,77.0365112 17.9558376,76.1817444 C17.9558376,75.3269777 18.648731,74.611359 19.5,74.611359 C20.351269,74.611359 21.0441624,75.3070994 21.0441624,76.1817444 C21.0441624,77.0365112 20.351269,77.7322515 19.5,77.7322515 L19.5,77.7322515 Z" id="Shape" fill="url(#linearGradient-7)"></path>
            <path d="M5.00608828,0 L0,0 L0,10.6368366 L0.0395738204,10.6368366 C2.29528158,10.6368366 0.514459665,15.2632674 4.01674277,15.2632674 C7.16286149,15.2632674 5.28310502,8.91675338 9.73515982,8.91675338 C13.9695586,8.91675338 11.0015221,15.4609781 16.4231355,15.4609781 C21.8447489,15.4609781 18.4809741,7.92819979 24.1202435,7.92819979 C30.4520548,7.92819979 26.1187215,19 29.7595129,19 C32.5692542,19 29.9178082,9.58896982 33.9543379,9.58896982 C36.9619482,9.58896982 34.7062405,15.5598335 39,15.6784599 L39,0 L6.45053272,0" id="Shape" fill="url(#linearGradient-8)"></path>
            <path d="M38.9604061,17.754717 C38.564467,17.754717 38.2279188,17.6937591 37.8913706,17.6124819 L37.8913706,25.8417997 L1.08883249,25.8417997 L1.08883249,15.9666183 C0.455329949,15.1335269 0.237563452,14.0769231 0.0989847716,13.4267054 C0.0791878173,13.3047896 0.0395939086,13.1422351 0,13 L0,27 L39,27 L39,17.7750363 L38.9604061,17.754717 L38.9604061,17.754717 Z" id="Shape" fill="url(#linearGradient-9)"></path>
        </g>
        <path d="M2.5,1111 L296,1111" id="Line" stroke="#38A4F7" stroke-width="4" stroke-linecap="square"></path>
    </g>
</svg>