<svg width="1026" height="2043" viewBox="0 0 1026 2043" xmlns="http://www.w3.org/2000/svg"><title>Untitled</title><path d="M988.215 1253a14.513 14.513 0 0 0 11.785 11.785v62.43A14.513 14.513 0 0 0 988.215 1339H921v5h67.215a14.513 14.513 0 0 0 11.785 11.785v67.43A14.513 14.513 0 0 0 988.215 1435H921v5h67.215a14.513 14.513 0 0 0 11.785 11.785v45.43A14.513 14.513 0 0 0 988.215 1509H921v5h67.215a14.513 14.513 0 0 0 11.785 11.785V1747h5v-221.215c6.817-1.184 12-7.13 12-14.285 0-7.156-5.183-13.1-12-14.285v-45.43c6.817-1.184 12-7.13 12-14.285 0-7.156-5.183-13.1-12-14.285v-67.43c6.817-1.184 12-7.13 12-14.285 0-7.156-5.183-13.1-12-14.285v-62.43c6.817-1.184 12-7.13 12-14.285 0-8.008-6.492-14.5-14.5-14.5-7.156 0-13.1 5.183-14.285 12h-648.43A14.513 14.513 0 0 0 328 1236.215v-71.43A14.513 14.513 0 0 0 339.785 1153H407v-5h-67.215A14.513 14.513 0 0 0 328 1136.215v-47.43A14.513 14.513 0 0 0 339.785 1077H407v-5h-67.215A14.513 14.513 0 0 0 328 1060.215v-42.43A14.513 14.513 0 0 0 339.785 1006H407v-5h-67.215A14.513 14.513 0 0 0 328 989.215v-42.43A14.513 14.513 0 0 0 339.785 935H406v-5h-66.215A14.513 14.513 0 0 0 328 918.215v-44.43A14.513 14.513 0 0 0 339.785 862H408v-5h-68.215A14.513 14.513 0 0 0 328 845.215v-74.43A14.513 14.513 0 0 0 339.785 759h161.43c1.184 6.817 7.13 12 14.285 12 8.008 0 14.5-6.492 14.5-14.5 0-7.156-5.183-13.1-12-14.285V425h-5v317.215A14.513 14.513 0 0 0 501.215 754h-161.43c-1.184-6.817-7.13-12-14.285-12-8.008 0-14.5 6.492-14.5 14.5 0 7.156 5.183 13.1 12 14.285v74.43c-6.817 1.184-12 7.13-12 14.285 0 7.156 5.183 13.1 12 14.285v44.43c-6.817 1.184-12 7.13-12 14.285 0 7.156 5.183 13.1 12 14.285v42.43c-6.817 1.184-12 7.13-12 14.285 0 7.156 5.183 13.1 12 14.285v42.43c-6.817 1.184-12 7.13-12 14.285 0 7.156 5.183 13.1 12 14.285v47.43c-6.817 1.184-12 7.13-12 14.285 0 7.156 5.183 13.1 12 14.285v71.43c-6.817 1.184-12 7.13-12 14.285 0 8.008 6.492 14.5 14.5 14.5 7.156 0 13.1-5.183 14.285-12h648.43zM518 100v108h-5V100H400.785c-1.184 6.817-7.13 12-14.285 12-8.008 0-14.5-6.492-14.5-14.5S378.492 83 386.5 83c7.156 0 13.1 5.183 14.285 12h225.292c.75-7.303 6.921-13 14.423-13 8.008 0 14.5 6.492 14.5 14.5s-6.492 14.5-14.5 14.5c-6.801 0-12.509-4.683-14.075-11H518z" fill="#000" fill-rule="evenodd"/></svg>