<?xml version="1.0" encoding="UTF-8"?>
<svg width="250px" height="143px" viewBox="0 0 250 143" version="1.1" xmlns="http://www.w3.org/2000/svg" xmlns:xlink="http://www.w3.org/1999/xlink">
    <!-- Generator: Sketch 42 (36781) - http://www.bohemiancoding.com/sketch -->
    <title>Group 9</title>
    <desc>Created with Sketch.</desc>
    <defs></defs>
    <g id="Page-1" stroke="none" stroke-width="1" fill="none" fill-rule="evenodd">
        <g id="Desktop-HD" transform="translate(-595.000000, -1021.000000)">
            <g id="Group-9" transform="translate(595.000000, 1021.000000)">
                <circle id="Oval" fill="#F03F43" cx="125.5" cy="71.5" r="71.5"></circle>
                <g id="Group" transform="translate(0.000000, 34.000000)">
                    <rect id="Rectangle-5" fill="#FAF000" x="166.094411" y="46.4823418" width="17.738238" height="49.9895799"></rect>
                    <rect id="Rectangle" fill="#002FC1" x="0" y="17.9936565" width="49.9895799" height="17.738238"></rect>
                    <g id="11954231691370781588faceman_Suburban_Assault_Vehicle_(Side)" transform="translate(22.038417, 0.000000)">
                        <g id="svg2" transform="translate(0.000000, 0.000000)">
                            <g id="layer1">
                                <g id="g7636" transform="translate(113.745822, 44.210230) scale(-1, 1) translate(-113.745822, -44.210230) translate(0.245822, 0.210230)">
                                    <path d="M189.98462,0.101712795 L130.283416,0.115704079 C127.57197,0.0969254332 124.946601,0.941669027 122.521838,2.59216312 C120.416947,4.02492576 120.355365,4.03425169 111.795479,4.41103183 C97.3078628,5.04872596 95.5948631,5.85698829 90.902157,8.86026333 C89.5747313,9.70980164 72.9023042,21.352304 68.2467456,24.0408193 C65.7163515,25.5020838 54.9732056,26.4332693 52.178183,26.8810513 C50.6254363,27.1298053 46.3894956,27.5656952 42.7664004,27.8604412 C21.3455585,29.6031042 10.9481172,33.6796127 7.35682871,36.8708359 C5.57048699,38.4581844 2.6592768,42.1004457 1.20350806,51.7435829 C-0.140381828,53.3277342 0.18807131,53.0776315 0.168631351,58.0816396 C0.150274267,62.8070567 1.27808208,63.4465905 4.25219931,64.1958364 C5.46810901,64.5021438 6.01931265,64.3136995 6.34992272,64.6015844 C6.50470003,64.7699671 6.60276818,64.9670732 6.68555854,65.287158 L7.06314842,67.6516857 L14.1534532,67.7915985 L19.6634729,67.8755455 C19.6634729,78.8600371 28.4166338,87.6172643 39.2002701,87.6172643 C48.678072,87.617268 56.581749,80.8534055 58.3594751,71.8910497 L157.036378,71.8910497 C158.747827,80.9346403 166.688123,87.7851582 176.223555,87.7851582 C187.007187,87.7851619 195.774343,79.0279384 195.774336,68.2393218 C195.774321,68.1777185 199.046786,67.805589 199.046786,67.805589 C201.341699,67.6329287 206.719742,67.3453636 210.989822,67.1619907 C218.516991,66.8387455 218.7813,66.7853888 220.14988,65.5669837 C220.926244,64.8757947 222.19845,64.2601407 222.974814,64.1818458 C224.900495,63.9876503 225.373114,63.4932183 225.981552,61.0757787 C226.707317,58.1921822 226.660109,55.0921125 225.925612,54.4858775 C225.585855,54.272653 225.561949,54.2493648 225.54802,54.2340329 C225.23287,53.8745122 225.100508,53.0714576 225.100508,51.5896796 C225.1005,48.9519999 224.220444,48.1828689 221.870013,46.8046547 C221.640909,46.5008646 221.617415,46.3365464 221.660241,46.1890375 C222.842371,45.0462555 222.074603,35.3434149 220.905061,31.6380915 C220.373872,29.9551611 217.654694,22.9196791 217.073218,21.6622974 C216.442451,20.2983347 214.654274,17.3018215 213.101531,14.9884492 C211.548763,12.6750784 209.951562,10.2235528 209.563369,9.54583696 C208.348294,7.42444754 206.695528,5.40191069 206.067167,5.27849178 C205.421578,4.49497953 202.551404,3.88096092 200.696995,3.87936232 C199.168066,3.87719556 198.276545,3.55131243 197.172817,2.62014605 C195.021528,0.805177205 193.011759,0.101712428 189.98462,0.101712795 Z M188.096667,0.969173115 C188.099095,0.973870074 188.108425,0.992151498 188.110655,0.997155683 C188.113031,1.00212238 188.122189,1.0202535 188.124639,1.02513825 C188.128264,1.02887862 188.136525,1.03708222 188.138623,1.03912953 C188.140177,1.03898621 188.151336,1.0391751 188.152607,1.03912953 L193.103234,2.83001531 C193.103245,2.83001531 130.346853,3.47891584 129.821915,3.27773675 C129.817144,3.03370623 130.405404,1.60471813 131.024612,1.08110338 L188.096667,0.969173115 Z M127.500434,2.85799788 C127.523568,2.85584435 127.54751,2.86003968 127.570358,2.85799788 C127.57326,2.85773806 127.581425,2.85809195 127.584346,2.85799788 C127.596052,2.85810996 127.614668,2.85785896 127.626298,2.85799788 C127.629185,2.85791739 127.637421,2.8582441 127.640282,2.85799788 C127.643048,2.8580383 127.652808,2.85804271 127.65427,2.85799788 C127.665976,2.85810077 127.684596,2.85786374 127.696222,2.85799788 C127.697669,2.85796223 127.707433,2.85795745 127.710206,2.85799788 C127.712928,2.85805153 127.722625,2.85808313 127.724194,2.85799788 C127.762407,2.85687848 127.812782,2.85879497 127.850054,2.85799788 C127.851579,2.85793062 127.861298,2.85795304 127.864042,2.85799788 C127.879874,2.85758591 127.902339,2.85806513 127.919978,2.85799788 C127.921381,2.85795745 127.931145,2.85796664 127.933966,2.85799788 C127.949026,2.85762634 127.975018,2.85785014 127.989902,2.85799788 C127.991386,2.85796664 128.001131,2.85796664 128.00389,2.85799788 C128.018936,2.85765757 128.044935,2.85786374 128.059826,2.85799788 C128.06131,2.85797105 128.071052,2.85797105 128.073814,2.85799788 C128.076562,2.85802911 128.086296,2.85802911 128.087798,2.85799788 C128.099868,2.85805594 128.117831,2.85789939 128.12975,2.85799788 C128.132696,2.85795304 128.140833,2.85814561 128.143738,2.85799788 C128.146688,2.85785014 128.154728,2.85805153 128.157722,2.85799788 C128.172834,2.85805594 128.198995,2.85819485 128.213662,2.85799788 C128.216575,2.85786815 128.22466,2.85804712 128.227646,2.85799788 C128.245818,2.85805153 128.266619,2.85863805 128.283586,2.85799788 C128.286113,2.8579038 128.295083,2.85801588 128.29757,2.85799788 C128.300024,2.85806072 128.309137,2.85785896 128.311554,2.85799788 C128.312744,2.85810518 128.322637,2.85806072 128.325538,2.85799788 C128.32678,2.85797987 128.338061,2.85804712 128.339526,2.85799788 C128.340768,2.85797546 128.352037,2.85806513 128.35351,2.85799788 C128.35833,2.86033037 128.37678,2.86942808 128.381478,2.87198916 C128.386239,2.87414268 128.40473,2.88349103 128.40945,2.88598044 C128.411915,2.88846104 128.420981,2.8974599 128.423434,2.89997173 C128.425965,2.90218368 128.434943,2.91164375 128.437418,2.91396301 C128.439832,2.91638076 128.449063,2.92544283 128.451402,2.92795429 C128.45818,2.93573564 128.471793,2.94608247 128.479374,2.95593686 C128.482989,2.96087526 128.490423,2.97924966 128.493358,2.98391943 C128.562632,3.12064461 128.565979,3.33979092 128.493358,3.47361472 C128.491173,3.47842781 128.481835,3.49680699 128.479374,3.50159766 C128.475635,3.50532259 128.466859,3.51386943 128.465387,3.51558894 C128.463285,3.51750947 128.453742,3.52770857 128.451402,3.52958022 C128.441444,3.53685553 128.418439,3.55132125 128.40945,3.55756279 C128.408205,3.55883433 128.396932,3.5699959 128.395462,3.57155408 C128.390041,3.57443744 128.374753,3.58209348 128.367494,3.58554536 C127.601496,3.87962654 124.063301,3.95483043 123.556715,3.73944948 C123.556054,3.73955238 123.545908,3.73948072 123.542731,3.73944948 C123.540891,3.73758701 123.530558,3.72732066 123.528747,3.7254582 C123.52644,3.72544019 123.515318,3.72539094 123.514759,3.7254582 C123.512702,3.72342117 123.50166,3.71253265 123.500775,3.71146691 C123.500856,3.71031628 123.500746,3.69840245 123.500775,3.69747563 C123.500749,3.6952012 123.500702,3.68406205 123.500775,3.68348434 C123.500709,3.68234695 123.500786,3.67041988 123.500775,3.66949306 C123.503905,3.66947946 123.513977,3.66940339 123.514759,3.66949306 C123.514686,3.66893337 123.514733,3.65780744 123.514759,3.65550178 C123.515299,3.65559586 123.526433,3.6555286 123.528747,3.65550178 C123.529783,3.65441362 123.541816,3.64242372 123.542731,3.64151049 C123.552057,3.63506757 123.573157,3.6201094 123.584683,3.61352793 C124.047991,3.36286191 126.043199,2.99378741 127.500434,2.85799788 Z M138.422581,5.41840499 C138.555024,5.41713345 138.682471,5.41913005 138.814157,5.41840499 C139.340902,5.4155128 139.860792,5.41857514 140.380455,5.41840499 C152.436634,5.41446066 162.285846,5.69060145 163.063838,6.00603927 C163.069869,6.0087613 163.08713,6.01729932 163.091806,6.02003055 L169.818506,35.8774555 L170.210082,44.2162672 L168.797614,44.5940304 C168.334629,44.8603102 167.744264,45.1561917 166.979588,45.4894733 C163.109676,47.1761668 159.738474,50.1730584 158.00133,53.4924934 C157.363951,54.7104392 154.976395,58.8055834 154.826776,65.5669837 C154.330663,65.6804662 152.319568,65.7075764 151.368801,65.7068965 C151.29224,66.0227661 151.253068,67.5080427 151.256921,67.6703985 L121.417038,67.6703985 L122.074326,30.2389631 C145.435964,29.8742717 159.810713,29.1861109 160.714388,29.0776851 C162.399982,28.8754487 163.529011,27.1120038 162.910006,24.4465673 C162.90995,24.4431606 159.13173,7.70454663 158.994255,7.18130819 C158.994237,7.17989775 158.994204,7.16893315 158.994255,7.16731691 L127.164798,6.66363033 L112.998176,7.32122103 C100.741958,7.83746162 96.9566043,9.22451629 86.8046023,16.9052573 C86.313121,17.2771038 85.9380819,17.5779502 85.6438616,17.8146907 C85.6415401,17.8147238 85.6303918,17.8147936 85.6298775,17.8146907 L85.3921372,17.9266225 L80.5533862,21.6483069 C80.5488534,21.6530402 80.5305239,21.6710769 80.525418,21.6762916 L80.511434,21.6762916 C79.9029155,21.9949358 79.272655,22.6080026 78.1480003,23.7330089 C77.3376769,24.5435971 76.8052645,25.0863546 76.6795915,25.2580632 C76.6771451,25.2629472 76.6677636,25.2813918 76.6656074,25.2860443 C76.6656221,25.2869814 76.6655376,25.2988993 76.6656074,25.3000348 C76.6655193,25.3007919 76.6655633,25.3134006 76.6656074,25.3140254 C76.6667718,25.3140548 76.6786511,25.3140254 76.6795915,25.3140254 C76.7163865,25.2978041 76.8157663,25.2244631 76.9732718,25.0901656 L78.2319084,23.998844 L77.9522122,25.0481903 C77.8033866,25.6175729 77.4094559,26.1861507 77.0571836,26.3214 C77.0229819,26.3360925 76.9774446,26.3666791 76.9453036,26.3913564 C76.6458123,26.6303019 76.4034216,27.3315566 76.3998953,28.0563199 C76.3974048,28.5676346 76.3737931,28.8776831 76.3159872,29.0217192 C76.3133094,29.0271471 76.3035826,29.046437 76.3020031,29.049704 C76.3019663,29.0528865 76.3018929,29.0630404 76.3020031,29.0636945 C76.3001554,29.0655283 76.2898666,29.075877 76.288019,29.0776851 C76.2853779,29.0803935 76.2759046,29.0897794 76.2740313,29.0916756 C76.2708906,29.0917014 76.2608186,29.0917785 76.2600472,29.0916756 C76.2600104,29.0948287 76.259937,29.1049091 76.2600472,29.1056662 C76.2589415,29.1055964 76.2469814,29.1056846 76.2460631,29.1056662 C76.2449611,29.1056184 76.233001,29.1056809 76.232079,29.1056662 C76.2298861,29.1056331 76.218848,29.1056258 76.2180913,29.1056662 C76.2170187,29.1057029 76.2050218,29.1056588 76.2041072,29.1056662 C76.2030383,29.105725 76.1910304,29.1056478 76.1901231,29.1056662 C76.1901452,29.1043726 76.1899982,29.0932926 76.1901231,29.0916756 C76.1895868,29.0917344 76.1784532,29.091694 76.176139,29.0916756 C76.1748497,29.091694 76.1637786,29.091547 76.162155,29.0916756 C76.1615048,29.0909112 76.1513556,29.0808308 76.1481672,29.0776851 C76.0922309,29.0323986 76.0172084,28.947849 75.9383951,28.8258405 C75.8510157,28.6905802 75.7671517,28.5779759 75.7006548,28.5180337 C75.6887718,28.5093057 75.6676028,28.4963001 75.6586989,28.490049 C75.6564031,28.4875831 75.647095,28.4784912 75.6447148,28.4760584 C75.6399836,28.4735337 75.6218304,28.4645558 75.6167466,28.4620679 C75.6154426,28.4620862 75.60414,28.4619466 75.6027626,28.4620679 C75.6015136,28.4620679 75.5902074,28.4620017 75.5887748,28.4620679 C75.5860676,28.4620017 75.578835,28.4620752 75.5747907,28.4620679 C75.43106,28.2376017 75.1067595,27.3135015 76.8753796,24.9502527 C74.6446421,27.4793228 75.01095,28.8434105 76.0362909,29.5953611 C76.0387337,29.5979593 76.0477809,29.6068233 76.050275,29.6093553 C76.0515496,29.6093333 76.0626686,29.6094178 76.0642591,29.6093553 C76.2064618,29.7521934 76.3569439,29.8911581 76.5257593,30.0151033 C77.4925927,30.724972 79.872556,30.7668959 103.93601,30.4768134 C109.704932,30.4072649 116.058587,30.3313257 121.151326,30.2529536 L120.396145,67.6703985 L68.7156842,67.6703985 L68.7156842,34.1005603 L70.7220593,27.2308334 C70.7219564,27.2300654 70.7220299,27.2199887 70.7220593,27.2168429 L71.4352839,25.1741125 C71.8497261,24.7587877 88.0283137,12.5524253 96.3422526,8.13271621 C99.9810583,6.19831321 119.078318,5.50900582 137.219888,5.43239627 C137.620328,5.43070836 138.025256,5.42221959 138.422581,5.41840499 Z M199.704071,5.75419616 C200.071378,5.75247224 200.428252,5.75558382 200.766919,5.75419616 C201.116506,5.7527633 201.443496,5.75525712 201.75984,5.75419616 C202.434708,5.75193496 203.032196,5.75460775 203.535913,5.75419616 C204.408307,5.75348395 204.993971,5.76208482 205.242062,5.76818744 C205.242198,5.76983052 205.242025,5.78088919 205.242062,5.78217873 C205.237474,5.78710353 205.232963,5.80542428 205.228074,5.81016129 C205.231648,5.81017011 205.239388,5.81005803 205.242062,5.81016129 C205.245412,5.81024619 205.252983,5.81017011 205.256046,5.81016129 C206.152243,6.59371397 215.735544,21.7184801 217.031266,26.9510078 C216.415445,26.7744079 216.285048,26.9056956 215.688721,26.8670608 C214.649389,22.0890771 207.824789,11.6805055 204.011397,6.28586531 C203.795777,6.35212362 203.565391,6.39306297 203.340125,6.39779557 C194.03213,6.59325717 170.701299,6.59203047 170.699551,6.59367355 C170.69594,6.59729558 170.689082,6.60395349 170.685567,6.60766483 C170.254672,7.0872551 170.575391,8.3158296 171.440747,10.8050536 C173.867512,17.7858534 177.222294,26.0406262 178.04158,27.048949 L178.90864,28.1122858 C178.908637,28.1122858 218.720856,28.0676351 218.723427,28.0703105 C218.723325,28.0751246 218.723394,28.0932348 218.723427,28.0982952 C218.72396,28.1011654 218.72277,28.1091915 218.723427,28.1122858 C218.821606,28.5301243 219.890148,30.6953887 220.065972,31.8619513 C218.745291,31.526156 215.222872,31.4901378 213.88468,31.8059891 C210.335072,32.6437903 210.647728,45.4684856 213.800772,46.2310128 L212.164547,46.930577 C211.085624,53.0623033 211.059687,60.4928024 212.556123,65.9307563 C211.02769,66.1733804 197.707705,66.5061732 197.704241,66.5043982 C197.704366,66.5027665 197.704212,66.4917123 197.704241,66.4904076 C197.702757,66.4890736 197.691506,66.477696 197.690257,66.4764171 C197.690397,66.4749618 197.690224,66.4636834 197.690257,66.4624266 C197.687322,66.4594094 197.677445,66.4494466 197.676273,66.448436 C198.141388,54.3949187 189.108685,40.8084753 170.769475,43.9644226 L170.447823,35.7515333 L163.777062,6.02003055 C163.780291,6.02003055 188.317606,5.8075914 199.704071,5.75419616 Z M204.011397,6.28586531 C204.016202,6.28344314 204.034572,6.27439908 204.039365,6.27187402 C204.085399,6.25397406 204.13455,6.23258619 204.179214,6.21590889 C204.112261,6.22331392 204.04294,6.22779589 203.969441,6.21590889 C203.984994,6.23788732 203.995742,6.26372077 204.011397,6.28586531 Z M204.45891,6.13196082 C204.458884,6.13509041 204.458822,6.14511936 204.45891,6.1459521 C204.461231,6.14348547 204.470576,6.134437 204.472894,6.13196082 C204.472291,6.13186233 204.462109,6.13192958 204.45891,6.13196082 Z M171.342851,7.16731691 L187.369458,7.16731691 L203.396065,7.16731691 L206.234983,11.0568967 C208.883821,14.6690296 214.852046,27.4941512 214.849633,27.4966686 C214.306561,27.857244 184.286173,27.5248885 182.992207,27.6505719 C179.331561,28.0061274 178.367041,27.3766152 176.922795,23.6490619 C174.694949,17.899064 171.898361,9.94616694 171.636532,8.63640279 L171.342851,7.16731691 Z M129.332447,7.37718616 C129.352081,7.37501463 129.375233,7.37825631 129.402371,7.37718616 C129.474734,7.3743344 129.574992,7.37808616 129.696051,7.37718616 C133.327951,7.35027815 157.563027,7.50518517 158.504787,7.82490761 C158.504735,7.82661352 158.50479,7.83756929 158.504787,7.83889889 C158.505624,7.838814 158.515648,7.83887647 158.518771,7.83889889 C158.717071,8.36319865 162.493914,24.2798383 162.588353,24.7263929 C163.01887,26.7620968 161.566245,28.2157982 160.784312,28.2382081 L126.647361,29.2175979 L127.794118,8.28662033 C127.988521,7.6911731 128.358238,7.56757522 129.248539,7.40516873 C129.251602,7.4022137 129.261527,7.39237291 129.262523,7.39117745 C129.276907,7.39012972 129.299729,7.38080379 129.332447,7.37718616 Z M127.010965,7.40516873 C127.027198,7.40351684 127.040704,7.40680739 127.052921,7.40516873 C127.054343,7.40509707 127.065612,7.4051419 127.066905,7.40516873 C127.069113,7.40537931 127.078877,7.40511508 127.08089,7.40516873 C127.08216,7.40518233 127.093364,7.40511508 127.094874,7.40516873 C127.098778,7.40379871 125.851044,29.1337943 125.850225,29.133651 C125.274927,29.034802 122.392893,29.2121443 122.214174,29.2175979 C122.279066,28.521705 123.780868,11.6014021 124.144079,7.517099 C124.14412,7.51662897 126.507796,7.45635679 127.010965,7.40516873 Z M122.228158,7.53109065 C122.38782,7.55088432 123.563334,7.52527026 123.640623,7.53109065 C123.213053,11.4067508 121.236277,29.2175171 121.235234,29.2175979 L119.878708,29.3295297 L122.228158,7.53109065 Z M119.347284,7.58705579 C119.385809,7.58578425 119.421855,7.58777644 119.459164,7.58705579 C119.60839,7.58417683 119.747562,7.58727959 119.878708,7.58705579 C121.015265,7.5851393 121.502929,7.62186605 121.57087,7.62902964 L119.025632,29.2735638 C118.589172,30.1298427 86.3310171,29.2765883 85.4480772,29.1476415 C85.4467659,29.1476562 85.4355881,29.1475827 85.4340895,29.1476415 C85.4313712,29.1448706 85.4218281,29.1353231 85.4201054,29.133651 C85.4125936,29.1260842 85.3985434,29.1124207 85.3921372,29.1056662 C85.3911748,29.1046004 85.1821888,28.3304825 85.2662732,27.2728088 C85.3545084,26.1628221 85.249266,24.5572422 85.0285292,23.7050278 L84.6229727,22.1519923 L83.350352,23.3552457 C82.7910367,23.8738404 82.4241485,24.1875198 82.2455512,24.2786697 C82.2423518,24.2787101 82.2321806,24.2786917 82.2315671,24.2786697 C82.2279894,24.2805476 82.2070702,24.2909219 82.2035953,24.2926602 C82.2029488,24.2934172 82.1927923,24.3035013 82.1896112,24.3066544 C82.1886782,24.3066471 82.1767585,24.3066948 82.1756271,24.3066544 C82.1745178,24.3066618 82.1636634,24.306636 82.1616431,24.3066544 C82.1602729,24.3050926 82.1490218,24.2940016 82.147659,24.2926602 C82.144871,24.2899224 82.134674,24.2796104 82.1336712,24.2786697 C82.1323268,24.2773062 82.1212556,24.2660462 82.1196872,24.2646791 C82.1198084,24.2639147 82.1197239,24.2538417 82.1196872,24.2506886 C82.1197312,24.2496816 82.1196761,24.237602 82.1196872,24.236698 C82.119768,24.2309651 82.1196651,24.2129505 82.1196872,24.2087132 C82.1197496,24.2066994 82.1197459,24.1972768 82.1196872,24.1947227 C82.1196835,24.190581 82.1196064,24.1826174 82.1196872,24.1807321 C82.14097,23.9924202 82.271455,23.5997146 82.4972793,23.0054636 C82.7459181,22.3511748 83.4301497,21.7361272 84.0356084,21.6203258 C84.1059071,21.6068791 84.163467,21.5910217 84.2034247,21.5783504 C84.2046662,21.5783835 84.2159909,21.5782328 84.2174124,21.5783504 C84.2249536,21.5746571 84.241542,21.5662819 84.2453806,21.5643599 C84.2463062,21.5634265 84.2582553,21.551538 84.2593646,21.5503693 C84.2603013,21.5494653 84.2723092,21.5374372 84.2733487,21.5363751 C84.273323,21.5359378 84.2733193,21.5247365 84.2733487,21.5223846 C84.2734663,21.5216239 84.2733854,21.5115471 84.2733487,21.508394 C84.2723165,21.5075488 84.2605144,21.495245 84.2593646,21.4944035 C84.2582553,21.4945027 84.2463099,21.4943704 84.2453806,21.4944035 C84.2439039,21.4945321 84.2326491,21.4943704 84.2313965,21.4944035 C84.0824277,21.4318999 83.5906415,21.375493 82.8468995,21.3544906 C82.1990184,21.3361857 81.7070706,21.3383576 81.2945826,21.4104565 L85.6998016,18.0525448 C85.6997722,18.0512549 85.6999044,18.0401859 85.6998016,18.0385542 L85.7417575,18.02456 C85.744248,18.0220537 85.7532621,18.0131272 85.7557416,18.0105694 C85.7586104,18.0076699 85.7678339,17.9984862 85.7697256,17.9965789 C85.7745817,17.9942012 85.7929406,17.9848999 85.7976975,17.9825883 C86.5415643,17.5082584 87.7187796,16.7017273 89.1960079,15.6320512 C94.1500476,12.0447853 99.0111908,9.60133207 102.831209,8.77631563 C104.474156,8.42148305 108.927825,7.98640969 112.71848,7.81091632 C115.572194,7.67879365 117.598456,7.61966769 118.98368,7.60104707 C119.108905,7.59936357 119.231705,7.59087039 119.347284,7.58705579 Z M69.8549988,26.5312693 C69.8562514,26.531159 69.8678258,26.5312435 69.8689829,26.5312693 C69.8701106,26.5313134 69.8817622,26.5313501 69.882967,26.5312693 C69.8842159,26.53117 69.895794,26.5312472 69.8969547,26.5312693 C69.8980824,26.5313097 69.9097377,26.5313391 69.9109388,26.5312693 C69.9144798,26.5313244 69.9354027,26.5312068 69.938907,26.5312693 C69.9408722,26.5311443 69.9487366,26.5312729 69.952891,26.5312693 C69.9541546,26.5313097 69.9656152,26.5313244 69.9668788,26.5312693 C69.968833,26.5311664 69.9767047,26.5312729 69.9808629,26.5312693 C69.9821338,26.5313023 69.993598,26.5313097 69.9948469,26.5312693 C70.0473488,26.5253636 70.0976246,26.5266388 70.134695,26.5312693 C70.1359403,26.5312509 70.1472392,26.5313244 70.1486791,26.5312693 C70.159596,26.5337719 70.1812646,26.5417833 70.190635,26.5452598 C70.193805,26.5452892 70.2039249,26.5453407 70.2046191,26.5452598 C70.2059892,26.5463182 70.2172624,26.558067 70.2186032,26.5592504 C70.2185922,26.5605329 70.2185738,26.5716533 70.2186032,26.5732446 L68.310124,34.1005603 L68.310124,67.737426 C68.3101276,67.737426 62.9293293,67.6892841 62.3871056,67.8073824 C62.3863085,67.8072905 62.3762549,67.807353 62.3731179,67.8073824 C60.3661771,52.4545101 52.7631963,43.9012759 41.1301754,43.1109551 C31.944353,42.4868891 24.3015982,46.780389 20.5445175,52.7649481 C18.2422581,56.4321587 16.9729176,61.7842032 17.3140233,64.0139482 L14.2793172,63.9579824 C14.2793172,63.9579897 15.3124785,57.1228405 12.9088043,54.066139 C10.4279,50.911228 6.92923887,51.7529394 2.23838514,51.6736265 L3.77671539,45.2376324 C4.39309466,47.1008596 7.76571691,46.7926008 8.06966394,46.4748276 C8.20854598,47.3860617 15.5000495,46.7748177 16.0322048,46.2509641 L16.0461889,46.2509641 C16.8997464,45.346422 18.6742327,42.5567684 19.025348,41.0122588 C19.2009075,40.2400041 19.303079,39.5081848 19.3330124,38.9275568 C19.3479845,38.6372392 19.3478082,36.8901883 19.3190283,36.6828547 C19.2902483,36.4755212 19.2512053,36.2967567 19.0952721,36.165175 C18.9530253,36.0446623 18.7806322,35.9944146 18.5498637,35.9413152 C18.3190952,35.8882158 18.044975,35.848813 17.7247592,35.8153929 C17.0843348,35.7485529 16.2882893,35.716228 15.5011736,35.7174554 C14.7140578,35.7186828 15.1855786,35.7618856 14.5590134,35.8293871 C14.245729,35.8631342 13.8905989,35.9811333 13.747893,35.9553058 C13.7199469,35.950249 13.7659764,35.3998953 13.9856369,35.2338536 C15.0042044,34.6588189 16.3733766,34.3162617 18.2510078,33.7507782 C22.1371593,32.5803827 31.2931108,31.3238572 49.227385,29.5254047 C58.4764021,28.5979015 66.9244883,27.5387505 67.9950176,27.160877 C68.9243176,26.8328507 69.5116782,26.6046471 69.8549988,26.5312693 Z M215.730677,31.9598925 C215.758388,31.9585254 215.786606,31.9610317 215.814585,31.9598925 C215.843465,31.9587091 215.869332,31.9608406 215.898494,31.9598925 C217.262442,31.9155064 218.915241,32.1174855 220.26176,32.4775685 C220.268975,32.4847383 220.284421,32.5003826 220.289728,32.5055532 C221.179159,33.402264 221.406107,37.3852854 221.730165,40.3266852 C218.671245,40.5013999 215.055651,40.4008752 211.996731,40.35467 C211.579141,37.7106327 212.294452,33.5618562 213.702876,32.4216063 C214.145235,32.1561901 214.871727,32.002283 215.730677,31.9598925 Z M215.730677,32.2816898 C215.017456,32.3269578 214.422834,32.4631002 214.080468,32.6174813 L219.464624,32.6314755 C218.530148,32.4327855 217.497369,32.3013838 216.555782,32.2816898 C216.376553,32.277945 216.194826,32.2766624 216.024358,32.2816898 C215.971514,32.2832479 215.922263,32.2792863 215.870525,32.2816898 C215.867495,32.2818331 215.859502,32.2816457 215.856541,32.2816898 C215.844904,32.2815942 215.82616,32.2817449 215.814585,32.2816898 C215.81165,32.2817559 215.803599,32.2815244 215.800601,32.2816898 C215.777353,32.2829687 215.753683,32.2802308 215.730677,32.2816898 Z M213.64694,33.0652046 C213.608466,33.1217474 213.559123,33.1833727 213.521076,33.2470891 L220.26176,33.2610833 C220.235471,33.1926483 220.203705,33.1351757 220.177848,33.0791951 L213.64694,33.0652046 Z M213.283332,33.6948124 C213.254651,33.7557394 213.227366,33.8122088 213.199424,33.8767005 L220.457548,33.9046816 C220.441224,33.8387199 220.418406,33.7707112 220.401608,33.7088029 L213.283332,33.6948124 Z M213.031607,34.3244201 C213.008326,34.3886583 212.98405,34.4537895 212.961683,34.5202988 L220.583409,34.5482799 C220.570747,34.482693 220.568517,34.4156582 220.555441,34.3524049 L213.031607,34.3244201 Z M212.807848,34.9680184 C212.791175,35.0269794 212.781745,35.0897476 212.765895,35.1499066 L220.709273,35.1778914 C220.699517,35.1159427 220.677426,35.0566473 220.667321,34.9960032 L212.807848,34.9680184 Z M212.667999,35.5976299 C212.655323,35.6558154 212.637857,35.7065959 212.626047,35.7655238 C212.626146,35.7702755 212.625944,35.7887532 212.626047,35.7935049 L220.793181,35.8214897 C220.78453,35.7566231 220.774095,35.6895515 220.765213,35.625611 L212.667999,35.5976299 Z M11.9018958,36.1992529 C12.3423372,36.1757148 12.6432097,36.2070621 12.8248962,36.3111846 C12.8564935,36.3303679 12.8951472,36.3574302 12.9227884,36.381141 C12.9325078,36.3899646 12.9427121,36.3993945 12.9507602,36.4091221 C12.9525748,36.4108971 12.9629407,36.421334 12.9647443,36.4231163 C12.9670842,36.4278387 12.976473,36.4462759 12.9787284,36.4510974 C13.0733073,36.6044606 13.1022819,36.8475919 13.0906083,37.1786464 C13.0788466,37.5120713 13.0774397,37.8094412 13.0906083,38.0041329 C13.0909059,38.0085538 13.0902924,38.0138053 13.0906083,38.0181234 C13.0893227,38.0217984 13.091894,38.028439 13.0906083,38.032114 C12.9419371,38.4560272 12.764383,38.8670928 12.5731682,39.2913295 L12.5731682,39.30532 L12.4612882,39.4172518 L11.1746871,41.5299385 C9.54052645,44.2048638 8.38695223,45.1721815 8.23787323,45.2236382 C8.22678001,45.2271845 5.40765901,46.864222 4.86753171,44.6080209 C4.65336891,43.713427 5.99324026,40.713713 6.99322437,39.3752765 C7.24715638,39.0353984 7.41738229,38.8172788 7.49667681,38.7596629 C7.49760614,38.7596703 7.50954054,38.7595821 7.51066456,38.7596629 C7.51298606,38.7573661 7.52415275,38.7462714 7.52464864,38.7456687 C7.52650363,38.7474841 7.53682914,38.7577372 7.53863271,38.7596629 C7.54052444,38.7613791 7.55076914,38.771827 7.55261679,38.7736535 C7.55258005,38.7747449 7.49511568,39.1466796 7.39878461,39.5291835 C7.32374004,39.8272002 7.29202517,40.0589024 7.32886055,40.2147571 C7.33042169,40.2163778 7.34155532,40.2274615 7.34284463,40.2287477 C7.46259637,40.3010046 8.22240884,40.5819181 9.18884182,40.5785298 C9.84576646,40.5762293 11.0461453,40.603299 11.3145352,40.6065109 C9.42884852,40.3430718 8.50985929,40.0458452 8.26584506,39.8090092 C8.26457411,39.8077009 8.25474081,39.7978594 8.25185731,39.7950186 C8.25075166,39.7937177 8.24083755,39.7838762 8.23787323,39.7810244 C8.23660596,39.7797933 8.22540989,39.7684634 8.22388916,39.7670339 C8.22010203,39.7596288 8.21178212,39.7428343 8.20990508,39.7390528 C8.20992712,39.7378143 8.20978019,39.7264991 8.20990508,39.7250622 C8.20721259,39.7202627 8.19826454,39.7018475 8.19591733,39.6970774 C8.19583285,39.695861 8.19589529,39.6859791 8.19591733,39.6830869 C8.19598713,39.6818852 8.19597243,39.6719922 8.19591733,39.6690963 C8.19849228,39.6666194 8.2072934,39.6575754 8.20990508,39.6551058 C8.20986835,39.6538637 8.21000059,39.6425669 8.20990508,39.6411116 C8.21220087,39.6358931 8.22005796,39.6203297 8.22388916,39.6131305 C8.22639064,39.6106462 8.23533502,39.6016205 8.23787323,39.5991399 C8.23999638,39.5968247 8.24958357,39.5874499 8.25185731,39.5851494 C8.26583404,39.5719783 8.28887636,39.5558159 8.30779729,39.5431741 C8.69909061,39.2941886 10.0388914,39.1443203 11.6221996,39.2913295 C11.2579377,39.2065887 10.5398203,39.0388455 10.1817626,38.9555379 C9.52314094,38.8023071 8.94285138,38.551418 8.7273416,38.3679055 C8.72405404,38.3649766 8.71645408,38.3568071 8.71335753,38.353915 C8.71036382,38.3509676 8.70216145,38.3428313 8.69937345,38.3399207 C8.69804373,38.3384397 8.68824716,38.3286937 8.68538937,38.3259302 C8.68358581,38.3223802 8.67303622,38.3014734 8.67140162,38.2979491 C8.67009762,38.2966555 8.65896399,38.2852925 8.65741755,38.2839585 C8.65390592,38.2767887 8.64478156,38.2586418 8.64343347,38.2559738 C8.64343347,37.514607 10.4869182,36.304261 11.7620477,36.2132471 C11.8106522,36.2097743 11.8563364,36.2016894 11.9018958,36.1992529 Z M212.542139,36.2412282 C212.532798,36.3000054 212.5227,36.3640378 212.514167,36.4231163 L220.863105,36.4510974 C220.855924,36.3907767 220.856453,36.3290008 220.849121,36.2692093 L212.542139,36.2412282 Z M212.458227,36.8708359 C212.450969,36.9370843 212.436548,37.0003891 212.430259,37.0667147 L220.947017,37.0946957 C220.939758,37.0281607 220.940423,36.9649736 220.933029,36.8988207 L212.458227,36.8708359 Z M212.402291,37.5144343 C212.398566,37.5739097 212.391268,37.6370234 212.388303,37.6963224 L221.016941,37.7243035 C221.010656,37.6633066 221.009315,37.603291 221.002953,37.542419 L212.402291,37.5144343 Z M15.5011736,36.165175 C16.2756937,36.1639733 17.0517787,36.1987163 17.6688192,36.2631162 C17.9773394,36.2953162 18.2493585,36.342418 18.4519715,36.3890385 C18.6419191,36.4327447 18.785547,36.4962479 18.8155758,36.5149608 C18.8233852,36.5375875 18.8545895,36.6168783 18.8715158,36.7388206 C18.8940843,36.9014116 18.8995244,38.6275777 18.8854999,38.8995757 C18.8574546,39.4435681 18.7625855,40.1631351 18.5918196,40.9143213 C18.2519482,42.409366 16.0156641,45.9287111 15.7806384,45.9907039 C13.4829522,46.5967772 9.05318489,46.7467043 8.4192842,46.1110513 C8.91570236,45.5587388 10.597608,43.810251 11.090779,43.1109551 C11.0942906,43.111826 11.1012698,43.1100731 11.1047631,43.1109551 C11.4421514,43.1962765 11.6682511,43.3217173 12.3494119,43.362796 C13.1010367,43.4081228 13.1468752,43.3619838 15.8507938,43.0969608 L15.9067338,43.0829703 L15.948686,43.0549892 C16.9753751,42.316397 17.6370566,41.2285409 17.389123,40.2427382 C17.389123,40.2427382 16.6215563,40.1151659 16.2703381,40.0748443 C15.5922813,39.9969978 15.5510747,39.9269201 12.8808362,40.0608501 C13.5246987,39.4359573 13.9593401,36.4303891 13.8597729,36.3890385 C13.6781122,36.3135954 14.2994981,36.2955918 14.6009693,36.2631162 C15.0531689,36.214401 15.3075417,36.1654764 15.5011736,36.165175 Z M212.374319,38.1440457 C212.373155,38.2088976 212.374576,38.2755723 212.374319,38.3399207 L221.072877,38.3679055 C221.066295,38.3020577 221.065527,38.2379481 221.058893,38.1720268 L212.374319,38.1440457 Z M212.374319,38.787644 C212.376266,38.8524739 212.385412,38.9195454 212.388303,38.9835227 L221.142801,39.0115038 C221.13627,38.946097 221.121375,38.881337 221.114833,38.8156251 L212.374319,38.787644 Z M212.416275,39.4312423 C212.424606,39.5322484 212.433458,39.6273268 212.444243,39.7250622 C215.258051,39.7706353 218.422919,39.8433516 221.212725,39.711068 C221.203799,39.6249271 221.193624,39.5463602 221.184757,39.4592271 L212.416275,39.4312423 Z M14.8946496,40.4386169 C15.2569573,40.4321968 15.878986,40.4840541 16.2143982,40.5225639 C16.5498103,40.5610738 16.7217957,40.5951847 16.8716865,40.6065109 C16.8731962,40.606408 16.8841902,40.6068086 16.8856705,40.6065109 C16.888543,40.6053092 16.8968299,40.5941116 16.8996546,40.5925203 C16.9024646,40.5907674 16.9108029,40.5942218 16.9136387,40.5925203 C16.9150713,40.5917229 16.9261755,40.5792427 16.9276264,40.5785298 C16.9291288,40.5780631 16.9400751,40.5788311 16.9416105,40.5785298 C16.9805433,41.2499512 16.5325644,42.0517121 15.7249298,42.6492412 C15.6715905,42.6680754 14.8586481,42.6362098 14.6708934,42.8031446 C14.6653541,42.8077898 14.6479833,42.8137983 14.6429216,42.8171352 C14.6397662,42.8187558 14.6318651,42.8301335 14.6289375,42.8311294 C14.6275894,42.8313021 14.6162427,42.8311184 14.6149534,42.8311294 C14.6126209,42.8304605 14.6030521,42.8185059 14.6009693,42.8171352 C14.595959,42.8127105 14.5913381,42.8079882 14.5869816,42.8031446 C14.584965,42.8006236 14.5748599,42.7917743 14.5729975,42.7891541 C14.5695887,42.7837188 14.5618235,42.7669831 14.5590134,42.761173 C14.5564973,42.7551754 14.5469762,42.7395385 14.5450294,42.7331882 C14.543358,42.7266688 14.5461607,42.7120572 14.5450294,42.7052071 C14.5432882,42.6911872 14.5447869,42.6644555 14.5450294,42.6492412 C14.5601852,42.3199985 14.9928651,41.7337 15.0344977,41.5019538 C15.0348761,41.4993262 15.0342296,41.4904916 15.0344977,41.4879632 C15.0346483,41.4855341 15.034461,41.4762989 15.0344977,41.4739727 C15.0344132,41.471753 15.0347071,41.4620989 15.0344977,41.4599821 C15.0341598,41.4579756 15.0349642,41.4478878 15.0344977,41.4459916 C15.0333076,41.4424232 15.0222438,41.4351064 15.0205137,41.4319973 C15.0195072,41.4305604 15.0216597,41.4193224 15.0205137,41.4180068 C15.0192207,41.4168124 15.0079622,41.4190762 15.0065259,41.4180068 C15.0047848,41.417191 14.9944409,41.4046998 14.9925418,41.4040163 C14.9904885,41.4034613 14.9807727,41.4044352 14.9785578,41.4040163 C14.9761812,41.4037296 14.9671156,41.4041632 14.9645737,41.4040163 C14.9618628,41.4040052 14.9534694,41.4038803 14.9505896,41.4040163 C14.9470155,41.4041816 14.9402016,41.4036745 14.9366019,41.4040163 C14.9257364,41.4055414 14.9057245,41.414997 14.8946496,41.4180068 C14.876074,41.4238132 14.8438081,41.436422 14.8247256,41.4459916 C14.7825456,41.4685962 14.7287839,41.50618 14.6848775,41.5439291 C14.3327447,41.8554402 13.9351371,42.5913276 13.7339089,42.7751635 C13.7271942,42.7810067 13.7121963,42.7846339 13.7059407,42.7891541 C13.7039021,42.7905101 13.6939365,42.8019466 13.691953,42.8031446 C13.6900245,42.8041883 13.6798459,42.8022626 13.6779689,42.8031446 C13.6762058,42.8036959 13.6656929,42.8167566 13.6639848,42.8171352 C13.6623906,42.8171719 13.6515362,42.8172785 13.6500008,42.8171352 C13.6485241,42.8168081 13.6514186,42.8036518 13.6500008,42.8031446 C13.6379672,42.7988376 13.6180728,42.7946738 13.6080449,42.7891541 C13.601793,42.7852145 13.5854874,42.7796102 13.5800767,42.7751635 C13.5775752,42.7728152 13.5683847,42.7636389 13.566089,42.761173 C13.5618941,42.756006 13.5555284,42.7388182 13.5521049,42.7331882 C13.5490598,42.7273413 13.540435,42.7114839 13.5381208,42.7052071 C13.5361593,42.6987171 13.525404,42.6841092 13.5241367,42.6772223 C13.5222744,42.6630591 13.5234498,42.6368787 13.5241367,42.6212601 C13.5505695,42.2940239 14.0836981,41.6758269 14.1674373,41.4319973 C14.1709856,41.4205462 14.1801467,41.3996247 14.1814214,41.3900257 C14.181594,41.3877472 14.1814103,41.3781887 14.1814214,41.3760352 C14.1812781,41.3740066 14.1817262,41.3639409 14.1814214,41.3620409 C14.1804847,41.3585056 14.1690535,41.3510455 14.1674373,41.3480504 C14.1651158,41.3456102 14.1565094,41.335923 14.1534532,41.3340598 C14.1515431,41.3334277 14.1415702,41.3345376 14.1394691,41.3340598 C14.1371623,41.3337328 14.1279902,41.3342289 14.1254851,41.3340598 C14.1227705,41.3340488 14.1144175,41.3339055 14.1114973,41.3340598 C13.5272921,41.3644921 13.1324173,42.4682939 12.8248962,42.8171352 C12.8134577,42.8296447 12.7941584,42.84885 12.7829403,42.8591105 C12.7717736,42.868783 12.7519454,42.879907 12.7409881,42.8870916 C12.7382625,42.8887269 12.7297185,42.8996158 12.7270003,42.9010858 C12.7161899,42.9062822 12.6956748,42.9126987 12.6850481,42.9150764 C12.6824034,42.9154879 12.6736978,42.9148522 12.6710604,42.9150764 C12.6684413,42.9151131 12.6596916,42.9152307 12.6570763,42.9150764 C12.6039133,42.9118718 12.5485831,42.9083732 12.5032441,42.9010858 C12.4827841,42.8971573 12.4504337,42.8956432 12.43332,42.8870916 C12.4305761,42.885504 12.421966,42.874865 12.419336,42.873101 C12.4168198,42.871157 12.4077395,42.8612493 12.4053519,42.8591105 C12.4030855,42.8567695 12.393502,42.8476704 12.3913641,42.8451199 C12.387364,42.8395634 12.3808146,42.8236435 12.3773801,42.8171352 C12.3742431,42.810127 12.3659122,42.7972353 12.363396,42.7891541 C12.3625071,42.7862839 12.3641417,42.7781255 12.363396,42.7751635 C12.3603839,42.7598867 12.3490115,42.7366574 12.3494119,42.7191976 C12.3502421,42.7049021 12.360608,42.6787621 12.363396,42.6632318 C12.4341649,42.3190466 12.9442072,41.6925516 13.0486524,41.4040163 C13.0541219,41.3878722 13.0600359,41.3618719 13.0626365,41.3480504 C13.0630369,41.345386 13.0623647,41.336625 13.0626365,41.3340598 C13.0627798,41.3315976 13.0626255,41.3224286 13.0626365,41.3200693 C13.0625226,41.3178165 13.0628863,41.3082212 13.0626365,41.3060751 C13.0622472,41.3040391 13.0631655,41.2940102 13.0626365,41.2920845 C13.0618174,41.2903904 13.0496185,41.2796742 13.0486524,41.278094 C13.0461142,41.2754076 13.037831,41.2662974 13.0346684,41.2641034 C13.0311824,41.2621594 13.024824,41.2515387 13.0206843,41.2501129 C13.0184436,41.2495285 13.0091062,41.2505612 13.0066965,41.2501129 C13.0041142,41.2497968 12.9954711,41.2502893 12.9927125,41.2501129 C12.9344069,41.246346 12.8692214,41.2655477 12.8109121,41.2920845 C12.3313395,41.5273771 11.8606194,42.6534932 11.7340795,42.7751635 C11.7329555,42.7761227 11.7351448,42.788375 11.7340795,42.7891541 C11.7331318,42.789562 11.7209807,42.7889336 11.7200954,42.7891541 C11.6264054,42.7683171 11.4388455,42.7520481 11.3564874,42.7331882 C11.3589155,42.7295978 11.3540668,42.7227881 11.3564874,42.7191976 C11.6817944,42.2368637 11.9903587,41.7387531 12.2794879,41.2221281 C12.2841933,41.2137161 12.2887775,41.20257 12.2934719,41.194147 L12.7270003,40.5225639 C13.5723886,40.4786776 14.2908035,40.4493111 14.8946496,40.4386169 Z M6.53172526,40.7324332 L6.25202905,41.4739727 C7.2583194,41.4474138 10.3798355,41.2138631 10.8390509,41.1801564 C10.1836984,41.1176896 7.503105,40.7593375 6.53172526,40.7324332 Z M212.458227,40.7744085 C212.506086,40.7731186 212.549868,40.775092 212.598075,40.7744085 C212.790914,40.771667 212.987227,40.7755367 213.18544,40.7744085 C215.960421,40.7586429 219.039625,40.7856465 221.716181,40.8863366 C221.996142,41.6809497 221.989005,44.8717172 221.156789,45.6713614 C221.124644,45.7012057 221.079548,45.7327736 221.044909,45.7553084 C221.02551,45.7673586 220.995173,45.7876333 220.974985,45.7972837 C220.961688,45.8040089 220.932629,45.8194437 220.919045,45.8252648 C218.651219,46.2247139 215.198794,46.2698093 214.038512,45.8112743 C212.630095,45.0602203 212.319099,43.3609769 212.024699,40.788399 C212.168088,40.7869695 212.314658,40.7782819 212.458227,40.7744085 Z M213.087544,41.0962058 C212.918545,41.100138 212.748414,41.1088697 212.584091,41.1102 C212.602267,41.2534571 212.621463,41.4039207 212.640031,41.5439291 L221.380545,41.5579196 C221.359373,41.4253604 221.331294,41.3217928 221.310621,41.2081375 C218.961814,41.1270975 216.366716,41.0900392 213.926636,41.0962058 C213.700702,41.0967791 213.479744,41.0932989 213.255364,41.0962058 C213.199266,41.0969371 213.14388,41.0948938 213.087544,41.0962058 Z M5.97233247,41.7537983 L5.7066207,42.4953378 C6.69620914,42.4698557 9.66221766,42.2489028 10.3216107,42.2015179 C9.54497843,42.1232488 6.9360814,41.7798317 5.97233247,41.7537983 Z M212.709955,41.9916487 C212.719124,42.0547109 212.72845,42.1117425 212.737923,42.1735369 L221.422501,42.1875274 C221.421935,42.1256449 221.410258,42.0652396 221.408513,42.0056429 L212.709955,41.9916487 Z M212.793863,42.6212601 C212.803017,42.6721472 212.821137,42.7267717 212.835819,42.7751635 C212.836569,42.7778132 212.834618,42.7856408 212.835819,42.7891541 C212.838534,42.7968494 212.848191,42.8112626 212.849803,42.8171352 L221.408513,42.8311294 C221.411882,42.7644253 221.406309,42.7013374 221.408513,42.6352507 L212.793863,42.6212601 Z M5.38497006,42.9010858 L5.14722792,43.6426216 C5.71441204,43.6259741 7.04963085,43.5248798 8.07005698,43.4467466 C8.19984404,43.4368059 8.33029964,43.4418883 8.44764539,43.4327524 C9.12916981,43.4027427 9.66691575,43.3697159 9.74823423,43.362796 C9.74753632,43.3619911 9.73741283,43.3519401 9.73425016,43.3488054 C9.49891216,43.2736122 8.2241169,43.1606662 7.1190884,43.0689797 C7.08642215,43.0662713 7.05353184,43.0576499 7.02119252,43.0549892 C6.9672372,43.0484772 6.90683643,43.0473159 6.85337626,43.0409986 C6.80955582,43.0358206 6.77083679,43.0320244 6.72751297,43.0270044 C6.72629125,43.0269089 6.71641901,43.026975 6.71352816,43.0270044 C6.70422858,43.0271 6.69479971,43.0269089 6.68555854,43.0270044 C6.6826585,43.0270375 6.67278627,43.0271036 6.67157373,43.0270044 C6.15550917,42.9678046 5.6799044,42.9101703 5.38497006,42.9010858 Z M212.947696,43.2648584 C212.962686,43.3238892 212.973677,43.3909424 212.989652,43.4467466 L221.352577,43.4607372 C221.356423,43.4248255 221.363105,43.3850037 221.366561,43.3488054 C221.36651,43.3474163 221.366561,43.3360386 221.366561,43.3348149 C221.369503,43.3249292 221.377618,43.3027399 221.380545,43.2928395 C221.380545,43.2916195 221.380589,43.2802345 221.380545,43.278849 L212.947696,43.2648584 Z M5.21715197,43.8944662 L4.993395,44.6360057 C5.80662687,44.6104574 8.25115205,44.38881 8.78328158,44.3421895 C8.14691981,44.2639167 6.00709541,43.9204959 5.21715197,43.8944662 Z M213.1295,43.8944662 C213.155976,43.9607771 213.185076,44.0287637 213.213408,44.0903449 L221.268665,44.1043355 C221.280691,44.042497 221.286025,43.9729926 221.296637,43.9084568 L213.1295,43.8944662 Z M213.465136,44.5380645 C213.480556,44.5604487 213.503591,44.587353 213.521076,44.6080209 C213.556545,44.6488827 213.598552,44.694228 213.632952,44.7339432 L221.086865,44.7479338 C221.090843,44.7375263 221.096948,44.7167702 221.100849,44.7059621 C221.118352,44.6574785 221.126742,44.6054338 221.142801,44.5520587 L213.465136,44.5380645 Z M214.206332,45.1816665 C214.213554,45.1866902 214.21369,45.2039441 214.220316,45.2096476 C214.227016,45.2152372 214.240534,45.219423 214.248284,45.2236382 C214.689978,45.388853 215.811941,45.5212139 217.059234,45.517458 C218.301665,45.5137169 219.677349,45.3962838 220.765213,45.2096476 C220.766748,45.2097652 220.777926,45.2096366 220.779197,45.2096476 C220.780677,45.2080821 220.791925,45.1969359 220.793181,45.1956571 L214.206332,45.1816665 Z M151.830169,68.0854147 C151.726848,67.4684929 151.761479,66.5747001 151.807766,66.4678655 C151.807788,66.4647087 151.807847,66.4545879 151.807766,66.4538713 C151.820766,66.4321854 151.846346,66.4037816 151.863706,66.3839148 C151.873998,66.3727136 151.893896,66.3525675 151.905658,66.3419432 C152.184932,66.1008479 151.31966,66.006148 152.608759,66.0061517 C153.857669,66.0061517 154.462055,66.0129209 154.706485,66.2020304 C154.713842,66.2092774 154.729681,66.2253994 154.734453,66.2300115 C154.737145,66.2328265 154.745862,66.2411208 154.748437,66.244002 C154.770564,66.2706197 154.791256,66.3091883 154.804377,66.3419432 C154.804245,66.3433066 154.804414,66.3547173 154.804377,66.3559337 C154.806919,66.3607553 154.815881,66.3790419 154.818361,66.3839148 C154.863891,66.5788307 154.876644,67.3489907 154.770836,67.7776079 C154.60331,68.4562396 154.326567,69.1587768 154.14152,69.3866056 C154.134162,69.3940657 154.117864,69.4101473 154.113552,69.4145903 C152.920167,69.6016639 63.5065333,69.7967047 62.6807859,69.7363877 C62.6488911,69.6205972 62.5565234,68.6545621 62.5577723,68.6545364 C62.7777525,68.6710884 151.092066,68.0856536 151.830169,68.0854147 Z" id="path17487" fill="#000000" fill-rule="nonzero"></path>
                                    <path d="M38.7492643,56.3343093 C32.1604394,56.5437376 26.8621644,61.9767707 26.8621644,68.6186652 C26.8621644,75.3928653 32.3697745,80.8890268 39.1408405,80.8890305 C45.9119065,80.8890268 51.4195129,75.3928653 51.4195129,68.6186652 C51.4195166,61.8444614 45.9119065,56.3343093 39.1408405,56.3343093 C39.0085887,56.3343093 38.880517,56.3301346 38.7492643,56.3343093 Z M38.9170806,57.4396215 C38.9890102,57.4382507 39.0685839,57.4396215 39.1408405,57.4396215 C45.306569,57.4396252 50.286744,62.4500791 50.286744,68.6186652 C50.2867366,74.7872513 45.306569,79.7697278 39.1408405,79.7697278 C32.9751046,79.7697205 27.9669652,74.7872513 27.9669652,68.6186652 C27.9669652,62.5223691 32.8510992,57.554993 38.9170806,57.4396215 Z M38.5394922,57.775413 C38.5326416,57.7822411 38.5122881,57.802321 38.511524,57.8033941 C38.0119358,57.8319375 37.5224307,57.9052124 37.0431152,57.9992728 L37.0431152,62.672366 C37.5700361,62.486564 38.1408009,62.3611672 38.7212962,62.3225839 L38.7212962,57.8033941 C38.7194228,57.80335 38.6985661,57.8033537 38.6933243,57.8033941 C38.6921856,57.8032545 38.6814855,57.8033537 38.6793403,57.8033941 C38.6768461,57.8034823 38.6675491,57.8033905 38.6653562,57.8033941 C38.6627298,57.8028576 38.6543071,57.7902635 38.6513721,57.7894036 C38.6355992,57.7839646 38.6100039,57.7797458 38.5954321,57.775413 C38.5945359,57.7753653 38.5825427,57.7754057 38.5814481,57.775413 C38.5789466,57.7755049 38.5696055,57.7753726 38.5674603,57.775413 C38.5621892,57.7754755 38.5413104,57.7754829 38.5394922,57.775413 Z M39.5603848,57.8033941 L39.5603848,62.3225839 C40.1408801,62.3611672 40.7116339,62.4865713 41.2385621,62.672366 L41.2385621,57.9992728 C40.6928745,57.892181 40.1319467,57.8251609 39.5603848,57.8033941 Z M46.3989615,60.5876603 L42.6370468,63.3859207 C43.1179565,63.7110659 43.5499017,64.1050283 43.9236479,64.5471987 L47.5597023,61.832889 C47.204877,61.3952167 46.8165884,60.9651883 46.3989615,60.5876603 Z M30.9876872,61.511088 C30.6123358,61.9393781 30.2579035,62.3844481 29.9528105,62.8682447 L33.8965329,65.1348312 C34.2126641,64.6592738 34.5852238,64.2204071 35.0153177,63.8476345 L30.9876872,61.511088 Z M48.0771425,62.4904778 L44.427104,65.2187818 C44.7311833,65.6931595 44.9714985,66.2219633 45.1403286,66.7718136 L48.9162311,63.9735568 C48.6712802,63.4621172 48.3959992,62.9538344 48.0771425,62.4904778 Z M38.4835522,62.7423224 C36.741104,62.9428977 35.2232018,63.9432936 34.2881054,65.3307099 L36.3019188,66.4779973 C36.8397345,65.7573389 37.6189491,65.1936157 38.5394922,65.0368936 C38.5478231,65.0370223 38.5870755,65.0367246 38.5954321,65.0368936 C38.6037557,65.0370149 38.6290498,65.036743 38.6373844,65.0368936 C38.6414176,65.0366915 38.6612128,65.0368679 38.6653562,65.0368936 C38.6822054,65.037647 38.7190885,65.0374192 38.7352802,65.0368936 L38.7352802,62.7423224 C38.7306299,62.7422526 38.7243707,62.7422709 38.7212962,62.7423224 C38.6964907,62.7419292 38.6481176,62.7424216 38.6234003,62.7423224 C38.6188087,62.7424951 38.6017905,62.7423003 38.5954321,62.7423224 C38.5884162,62.7429692 38.5735432,62.7424326 38.5674603,62.7423224 C38.5645401,62.7421754 38.5563597,62.7424951 38.5534762,62.7423224 C38.5447229,62.7419145 38.5220001,62.7411979 38.511524,62.7423224 C38.497775,62.7437997 38.4972755,62.7407422 38.4835522,62.7423224 Z M39.5743689,62.7703035 L39.5743689,65.0648747 C40.4199739,65.1713088 41.1756282,65.5708497 41.7280304,66.1701906 L43.5880117,64.7710585 C42.603892,63.6345534 41.1633595,62.8913895 39.5743689,62.7703035 Z M29.5472502,63.5817994 C29.2918673,64.0657945 29.070877,64.5831508 28.8899656,65.1068501 L32.9315802,67.4573872 C33.0351256,66.8902977 33.2322691,66.3515569 33.4769849,65.8483896 L29.5472502,63.5817994 Z M44.1054519,65.4566322 L42.2174988,66.84177 C42.5167441,67.3670017 42.6929831,67.9720644 42.6929831,68.6186652 C42.6929831,69.1097235 42.578811,69.5784933 42.3993028,70.003803 L44.427104,71.1370999 C44.7981467,70.3670722 45.0144646,69.5162469 45.0144646,68.6046746 C45.0144646,67.4496183 44.6819213,66.3651616 44.1054519,65.4566322 Z M33.8685611,66.0582588 C33.4897348,66.8347435 33.2532287,67.6829669 33.2532287,68.6046746 C33.2532287,69.7636044 33.6101661,70.856271 34.1902132,71.7667077 C34.1924869,71.7666893 34.2153933,71.7666489 34.2181813,71.7667077 L36.0501944,70.3955604 C35.7509455,69.8739044 35.5747101,69.2652659 35.5747101,68.6186652 C35.5747101,68.1197608 35.6842576,67.6534055 35.8683904,67.2195368 C35.8684455,67.2139178 35.8685667,67.1927023 35.8683904,67.1915521 L33.8685611,66.0582588 Z M38.5255081,66.352075 C37.5673914,66.6255577 36.8613149,67.5755443 36.8613149,68.6186652 C36.8613149,69.8721074 37.8879709,70.8712648 39.1408405,70.8712648 C40.3937064,70.8712648 41.406382,69.8721074 41.406382,68.6186652 C41.406382,67.3652157 40.3937064,66.352075 39.1408405,66.352075 C39.0551912,66.3520714 38.9457577,66.3463127 38.8611443,66.352075 C38.8590101,66.3520346 38.8355233,66.3521596 38.8331725,66.352075 C38.831075,66.3521559 38.8212381,66.3521265 38.8191884,66.352075 C38.8171497,66.3520456 38.793314,66.3519538 38.7912202,66.352075 C38.7891301,66.3521706 38.7653017,66.3521265 38.7632484,66.352075 C38.7611951,66.3520456 38.737352,66.3519427 38.7352802,66.352075 C38.7332085,66.3521816 38.7233569,66.3521375 38.7212962,66.352075 C38.7161426,66.3521338 38.6953704,66.3521118 38.6933243,66.352075 C38.6850522,66.3518104 38.6456198,66.3522441 38.6373844,66.352075 C38.6290975,66.3517884 38.6036933,66.3522625 38.5954321,66.352075 C38.5871196,66.3517774 38.5477754,66.3522845 38.5394922,66.352075 C38.5319142,66.354144 38.533053,66.3499215 38.5255081,66.352075 Z M38.9590365,67.0096676 L40.5393215,67.8771257 L40.5393215,69.2622635 L39.2107645,70.1996817 L37.7283717,69.3462141 L37.7283717,67.9610763 L38.9590365,67.0096676 Z M45.3081448,69.7799432 C45.20039,70.3537982 45.0149788,70.90933 44.7627365,71.4169256 L48.7484112,73.6835157 C49.0140204,73.1812562 49.2208136,72.6758067 49.4056995,72.1304803 L45.3081448,69.7799432 Z M33.1273646,70.4795074 L29.323494,73.2917583 C29.5722761,73.8150828 29.8642851,74.30197 30.1905544,74.7748337 L33.8685611,72.0325428 C33.5570214,71.5541557 33.300463,71.0358954 33.1273646,70.4795074 Z M42.0077266,70.7453425 C41.4427803,71.5065908 40.560968,72.0335975 39.5743689,72.1584614 L39.5743689,74.4530363 C41.4116421,74.313039 43.031657,73.3234401 44.007556,71.8786358 L42.0077266,70.7453425 Z M36.567631,71.0671435 L34.7076497,72.4522813 C35.7005227,73.5920131 37.1342891,74.3432692 38.7352802,74.4530363 L38.7352802,72.1584614 C37.8820312,72.061597 37.1288196,71.6561357 36.567631,71.0671435 Z M44.0495119,71.7806982 C44.0497617,71.7832597 44.0494421,71.8064927 44.0495119,71.8086793 C44.0536553,71.8053902 44.0734285,71.7855528 44.0774801,71.7806982 C44.0752137,71.7806835 44.0522999,71.7806394 44.0495119,71.7806982 Z M44.3431922,72.1304803 C44.0182084,72.61162 43.6244136,73.0437614 43.1824514,73.4176806 L47.2939901,75.7961988 C47.6662817,75.3733035 47.9975357,74.9026449 48.3008987,74.4250516 L44.3431922,72.1304803 Z M34.3720135,72.7041222 L30.6940069,75.4464168 C31.048204,75.8850592 31.4372897,76.2713263 31.8547476,76.6496701 L35.6306501,73.8374191 C35.1601908,73.5193629 34.74018,73.134463 34.3720135,72.7041222 Z M37.0431152,74.5509739 L37.0431152,79.2800329 C37.5888028,79.3866139 38.1497343,79.4542588 38.7212962,79.4759116 L38.7212962,74.900756 C38.1408009,74.8621726 37.5700361,74.7367832 37.0431152,74.5509739 Z M41.2385621,74.5509739 C40.7116339,74.7367832 40.1408801,74.8621726 39.5603848,74.900756 L39.5603848,79.4759116 C40.1319467,79.4542588 40.6928745,79.3866029 41.2385621,79.2800329 L41.2385621,74.5509739 Z" id="path17489" fill="#FFFFFF" fill-rule="nonzero"></path>
                                    <path d="M175.886269,56.3343093 C169.297444,56.5437376 163.999169,61.9767707 163.999169,68.6186652 C163.999169,75.3928653 169.506776,80.8890268 176.277842,80.8890305 C183.048908,80.8890268 188.556518,75.3928653 188.556518,68.6186652 C188.556521,61.8444614 183.048908,56.3343093 176.277842,56.3343093 C176.145594,56.3343093 176.017518,56.3301346 175.886269,56.3343093 Z M176.054085,57.4396215 C176.126015,57.4382507 176.205589,57.4396215 176.277842,57.4396215 C182.443574,57.4396252 187.423745,62.4500791 187.423745,68.6186652 C187.423742,74.7872513 182.443574,79.7697278 176.277842,79.7697278 C170.112106,79.7697205 165.10397,74.7872513 165.10397,68.6186652 C165.10397,62.5223691 169.9881,57.554993 176.054085,57.4396215 Z M175.676497,57.775413 C175.669643,57.7822411 175.649289,57.802321 175.648525,57.8033941 C175.148937,57.8319375 174.659436,57.9052124 174.18012,57.9992728 L174.18012,62.672366 C174.707041,62.486564 175.277806,62.3611672 175.858297,62.3225839 L175.858297,57.8033941 C175.856428,57.80335 175.835567,57.8033537 175.830329,57.8033941 C175.829187,57.8032545 175.818487,57.8033537 175.816345,57.8033941 C175.813851,57.8034823 175.80455,57.8033905 175.802357,57.8033941 C175.799731,57.8028576 175.791308,57.7902635 175.788373,57.7894036 C175.772604,57.7839646 175.747005,57.7797458 175.732433,57.775413 C175.731541,57.7753653 175.719548,57.7754057 175.718449,57.775413 C175.715948,57.7755049 175.70661,57.7753726 175.704465,57.775413 C175.699194,57.7754755 175.678312,57.7754829 175.676497,57.775413 Z M176.697386,57.8033941 L176.697386,62.3225839 C177.277885,62.3611672 177.848635,62.4865713 178.375567,62.672366 L178.375567,57.9992728 C177.829876,57.892181 177.268948,57.8251609 176.697386,57.8033941 Z M183.535966,60.5876603 L179.774048,63.3859207 C180.254961,63.7110659 180.686907,64.1050283 181.060653,64.5471987 L184.696707,61.832889 C184.341882,61.3952167 183.95359,60.9651883 183.535966,60.5876603 Z M168.124692,61.511088 C167.749341,61.9393781 167.394908,62.3844481 167.089815,62.8682447 L171.033534,65.1348312 C171.349669,64.6592738 171.722229,64.2204071 172.152319,63.8476345 L168.124692,61.511088 Z M185.214144,62.4904778 L181.564105,65.2187818 C181.868188,65.6931595 182.108503,66.2219633 182.27733,66.7718136 L186.053232,63.9735568 C185.808281,63.4621172 185.533004,62.9538344 185.214144,62.4904778 Z M175.620557,62.7423224 C173.878105,62.9428977 172.360203,63.9432936 171.42511,65.3307099 L173.438924,66.4779973 C173.976739,65.7573389 174.755954,65.1936157 175.676497,65.0368936 C175.684828,65.0370223 175.72408,65.0367246 175.732433,65.0368936 C175.740757,65.0370149 175.766051,65.036743 175.774389,65.0368936 C175.778422,65.0366915 175.798214,65.0368679 175.802357,65.0368936 C175.819207,65.037647 175.856093,65.0374192 175.872281,65.0368936 L175.872281,62.7423224 C175.867635,62.7422526 175.861372,62.7422709 175.858297,62.7423224 C175.833492,62.7419292 175.785119,62.7424216 175.760405,62.7423224 C175.755814,62.7424951 175.738795,62.7423003 175.732433,62.7423224 C175.725417,62.7429692 175.710548,62.7424326 175.704465,62.7423224 C175.701541,62.7421754 175.693361,62.7424951 175.690481,62.7423224 C175.681728,62.7419145 175.659001,62.7411979 175.648525,62.7423224 C175.63478,62.7437997 175.634277,62.7407422 175.620557,62.7423224 Z M176.711374,62.7703035 L176.711374,65.0648747 C177.556979,65.1713088 178.312633,65.5708497 178.865035,66.1701906 L180.725017,64.7710585 C179.740897,63.6345534 178.300361,62.8913895 176.711374,62.7703035 Z M166.684255,63.5817994 C166.428872,64.0657945 166.207882,64.5831508 166.026967,65.1068501 L170.068581,67.4573872 C170.172127,66.8902977 170.36927,66.3515569 170.61399,65.8483896 L166.684255,63.5817994 Z M181.242453,65.4566322 L179.354504,66.84177 C179.653749,67.3670017 179.829988,67.9720644 179.829988,68.6186652 C179.829988,69.1097235 179.715812,69.5784933 179.536308,70.003803 L181.564105,71.1370999 C181.935148,70.3670722 182.151469,69.5162469 182.151469,68.6046746 C182.151469,67.4496183 181.818926,66.3651616 181.242453,65.4566322 Z M171.005566,66.0582588 C170.62674,66.8347435 170.390234,67.6829669 170.390234,68.6046746 C170.390234,69.7636044 170.747171,70.856271 171.327214,71.7667077 C171.329488,71.7666893 171.352398,71.7666489 171.355186,71.7667077 L173.187196,70.3955604 C172.88795,69.8739044 172.711715,69.2652659 172.711715,68.6186652 C172.711715,68.1197608 172.821259,67.6534055 173.005395,67.2195368 C173.005447,67.2139178 173.005568,67.1927023 173.005395,67.1915521 L171.005566,66.0582588 Z M175.662509,66.352075 C174.704396,66.6255577 173.998316,67.5755443 173.998316,68.6186652 C173.998316,69.8721074 175.024972,70.8712648 176.277842,70.8712648 C177.530708,70.8712648 178.543383,69.8721074 178.543383,68.6186652 C178.543383,67.3652157 177.530708,66.352075 176.277842,66.352075 C176.192192,66.3520714 176.082763,66.3463127 175.998145,66.352075 C175.996011,66.3520346 175.972525,66.3521596 175.970177,66.352075 C175.968076,66.3521559 175.958243,66.3521265 175.956193,66.352075 C175.954151,66.3520456 175.930315,66.3519538 175.928221,66.352075 C175.926131,66.3521706 175.902307,66.3521265 175.900253,66.352075 C175.8982,66.3520456 175.874353,66.3519427 175.872281,66.352075 C175.87021,66.3521816 175.860362,66.3521375 175.858297,66.352075 C175.853147,66.3521338 175.832375,66.3521118 175.830329,66.352075 C175.822053,66.3518104 175.782625,66.3522441 175.774389,66.352075 C175.766102,66.3517884 175.740694,66.3522625 175.732433,66.352075 C175.724124,66.3517774 175.68478,66.3522845 175.676497,66.352075 C175.668919,66.354144 175.670054,66.3499215 175.662509,66.352075 Z M176.096041,67.0096676 L177.676326,67.8771257 L177.676326,69.2622635 L176.347766,70.1996817 L174.865377,69.3462141 L174.865377,67.9610763 L176.096041,67.0096676 Z M182.44515,69.7799432 C182.337391,70.3537982 182.151984,70.90933 181.899741,71.4169256 L185.885416,73.6835157 C186.151025,73.1812562 186.357815,72.6758067 186.542701,72.1304803 L182.44515,69.7799432 Z M170.26437,70.4795074 L166.460499,73.2917583 C166.709281,73.8150828 167.001286,74.30197 167.327556,74.7748337 L171.005566,72.0325428 C170.694023,71.5541557 170.437468,71.0358954 170.26437,70.4795074 Z M179.144732,70.7453425 C178.579785,71.5065908 177.697973,72.0335975 176.711374,72.1584614 L176.711374,74.4530363 C178.548647,74.313039 180.168662,73.3234401 181.144561,71.8786358 L179.144732,70.7453425 Z M173.704636,71.0671435 L171.844655,72.4522813 C172.837528,73.5920131 174.27129,74.3432692 175.872281,74.4530363 L175.872281,72.1584614 C175.019036,72.061597 174.265824,71.6561357 173.704636,71.0671435 Z M181.186517,71.7806982 C181.186767,71.7832597 181.186443,71.8064927 181.186517,71.8086793 C181.19066,71.8053902 181.21043,71.7855528 181.214485,71.7806982 C181.212215,71.7806835 181.189305,71.7806394 181.186517,71.7806982 Z M181.480197,72.1304803 C181.155213,72.61162 180.761418,73.0437614 180.319456,73.4176806 L184.430995,75.7961988 C184.803287,75.3733035 185.134541,74.9026449 185.4379,74.4250516 L181.480197,72.1304803 Z M171.509018,72.7041222 L167.831012,75.4464168 C168.185209,75.8850592 168.574291,76.2713263 168.991749,76.6496701 L172.767651,73.8374191 C172.297196,73.5193629 171.877185,73.134463 171.509018,72.7041222 Z M174.18012,74.5509739 L174.18012,79.2800329 C174.725804,79.3866139 175.286739,79.4542588 175.858297,79.4759116 L175.858297,74.900756 C175.277806,74.8621726 174.707041,74.7367832 174.18012,74.5509739 Z M178.375567,74.5509739 C177.848635,74.7367832 177.277885,74.8621726 176.697386,74.900756 L176.697386,79.4759116 C177.268948,79.4542588 177.829876,79.3866029 178.375567,79.2800329 L178.375567,74.5509739 Z" id="path17491" fill="#FFFFFF" fill-rule="nonzero"></path>
                                    <path d="M14.3940109,63.751597 C14.7927683,31.4345762 64.562241,29.5510816 65.1944704,67.6181039" id="path17493" stroke="#000000" stroke-width="1.03006328"></path>
                                    <path d="M151.514993,65.7213979 C151.701322,31.5964028 200.466913,31.9274169 200.578342,66.1343634" id="path17495" stroke="#000000" stroke-width="0.991762515"></path>
                                    <path d="M107.024632,34.6286548 C106.408558,34.6671389 105.926043,35.1784941 105.926043,35.804945 L105.926043,36.0438758 C105.926043,36.6955407 106.450422,37.220166 107.101785,37.220166 L116.959684,37.220166 C117.611044,37.220166 118.135419,36.6955407 118.135423,36.0438758 L118.135423,35.804945 C118.135423,35.1532802 117.61104,34.6286548 116.959684,34.6286548 L107.101785,34.6286548 C107.086519,34.6286548 107.069148,34.6280815 107.054025,34.6286548 C107.044181,34.6290297 107.03441,34.6280411 107.024632,34.6286548 Z M107.355309,34.9852209 C107.370098,34.9845263 107.38446,34.9855039 107.399399,34.9852209 C107.409508,34.9850298 107.418614,34.9852209 107.428793,34.9852209 L114.310578,34.9852209 C114.261951,35.0902511 114.233418,35.2336992 114.233418,35.3895687 L114.233418,36.5438018 C114.233418,36.6609005 114.248551,36.7684701 114.277508,36.8599287 L107.428793,36.8599287 C106.777429,36.8599287 106.253047,36.4664587 106.253047,35.977712 L106.253047,35.8674339 C106.253047,35.3975948 106.739125,35.014073 107.355309,34.9852209 Z M114.736785,34.9852209 L116.629003,34.9852209 C117.280363,34.9852209 117.804746,35.3786835 117.804746,35.8674339 L117.804746,35.977712 C117.804746,36.4664587 117.280363,36.8599287 116.629003,36.8599287 L114.769856,36.8599287 C114.798812,36.7684701 114.813942,36.6609005 114.813942,36.5438018 L114.813942,35.3895687 C114.813942,35.2336992 114.785416,35.0902511 114.736785,34.9852209 Z" id="path17497" fill="#000000" fill-rule="nonzero"></path>
                                    <path d="M155.689043,34.6286548 C155.072972,34.6671389 154.590454,35.1784941 154.590454,35.804945 L154.590454,36.0438758 C154.590454,36.6955407 155.114836,37.220166 155.7662,37.220166 L165.624095,37.220166 C166.275455,37.220166 166.799834,36.6955407 166.799838,36.0438758 L166.799838,35.804945 C166.799838,35.1532802 166.275451,34.6286548 165.624095,34.6286548 L155.7662,34.6286548 C155.750934,34.6286548 155.733559,34.6280815 155.718437,34.6286548 C155.708596,34.6290297 155.698821,34.6280411 155.689043,34.6286548 Z M156.01972,34.9852209 C156.034505,34.9845263 156.048875,34.9855039 156.063811,34.9852209 C156.073923,34.9850298 156.083025,34.9852209 156.093204,34.9852209 L162.974993,34.9852209 C162.926366,35.0902511 162.897832,35.2336992 162.897832,35.3895687 L162.897832,36.5438018 C162.897832,36.6609005 162.912966,36.7684701 162.941922,36.8599287 L156.093204,36.8599287 C155.441841,36.8599287 154.917462,36.4664587 154.917462,35.977712 L154.917462,35.8674339 C154.917462,35.3975948 155.403532,35.014073 156.01972,34.9852209 Z M163.4012,34.9852209 L165.293411,34.9852209 C165.944778,34.9852209 166.46916,35.3786835 166.46916,35.8674339 L166.46916,35.977712 C166.46916,36.4664587 165.944778,36.8599287 165.293411,36.8599287 L163.434267,36.8599287 C163.463223,36.7684701 163.478353,36.6609005 163.478353,36.5438018 L163.478353,35.3895687 C163.478353,35.2336992 163.449831,35.0902511 163.4012,34.9852209 Z" id="path17499" fill="#000000" fill-rule="nonzero"></path>
                                    <rect id="rect17501" fill="#000000" fill-rule="nonzero" x="200.767826" y="55.5702902" width="11.3380984" height="0.540159391"></rect>
                                    <rect id="rect17503" fill="#000000" fill-rule="nonzero" x="200.767826" y="55.5702902" width="11.3380984" height="0.540159391"></rect>
                                    <rect id="rect17505" fill="#000000" fill-rule="nonzero" x="200.767826" y="55.5702902" width="11.3380984" height="0.540159391"></rect>
                                    <rect id="rect17507" fill="#000000" fill-rule="nonzero" x="68.6796826" y="55.5702902" width="84.527593" height="0.540159391"></rect>
                                </g>
                            </g>
                        </g>
                    </g>
                </g>
            </g>
        </g>
    </g>
</svg>