<?xml version="1.0" encoding="UTF-8"?>
<svg width="1440px" height="1982px" viewBox="0 0 1440 1982" version="1.1" xmlns="http://www.w3.org/2000/svg" xmlns:xlink="http://www.w3.org/1999/xlink">
    <!-- Generator: Sketch 42 (36781) - http://www.bohemiancoding.com/sketch -->
    <title>Group 10</title>
    <desc>Created with Sketch.</desc>
    <defs></defs>
    <g id="Page-1" stroke="none" stroke-width="1" fill="none" fill-rule="evenodd">
        <g id="Desktop-HD" transform="translate(0.000000, -1800.000000)" fill="#002FC1">
            <g id="Group-10" transform="translate(0.000000, 1800.000000)">
                <path d="M0,269.884771 C0,269.884771 58.2714216,182.245046 128.323224,182.245046 C164.567798,182.245046 166.924472,230.642578 248.18349,230.642578 C329.442508,230.642578 350.866159,217.03565 394.213704,218.244713 C484.033954,220.750005 442.595537,317.981453 503.082176,318.152345 C515.85129,318.188421 613.386257,256.321856 682.959845,249.307238 C752.533433,242.292619 791.719837,352.506362 872.096375,349.039808 C952.472913,345.573254 946.123626,269.884771 1023.11075,269.884771 C1100.09788,269.884771 1138.11207,182.245046 1194.18917,182.245046 C1244.4481,182.245046 1269.62578,249.7242 1319.21031,269.884771 C1360.3083,286.594799 1376.83106,130.421355 1394.77955,60.808218 C1412.72805,-8.80491891 1440,0.402987568 1440,0.402987568 L1440,1062.24471 L0,1062.24471 L0,269.884771 Z" id="Rectangle-4"></path>
                <path d="M3.9691377e-13,1062 L1440,1062 L1440,1903.29325 C1440,1903.29325 1365.04028,1930.55146 1255.42885,1903.29325 C1145.81741,1876.03504 1100.78275,1810.4432 1042.88755,1810.4432 C886.815798,1810.4432 933.194553,1982 862.703776,1982 C792.212998,1982 789.592338,1903.29325 656.277989,1903.29325 C522.96364,1903.29325 537.618324,1944.84114 447.965654,1943.55792 C358.312983,1942.27471 309.141402,1818.27033 213.647101,1818.27033 C118.1528,1818.27033 81.3301751,1903.29325 3.9691377e-13,1903.29325 C-4.96142212e-13,1903.29325 3.9691377e-13,1062 3.9691377e-13,1062 Z" id="Rectangle-6"></path>
            </g>
        </g>
    </g>
</svg>